<svg preserveAspectRatio="none" width="100%" height="100%" overflow="visible" style="display: block;" viewBox="0 0 563 222" fill="none" xmlns="http://www.w3.org/2000/svg">
<g id="Group 513158">
<rect id="Rectangle 24885" width="563" height="222" rx="16" fill="var(--fill-0, #D9D9D9)"/>
<path id="Vector" d="M234.5 110.865C234.416 84.7638 256.346 63.3214 282.797 64.0164C307.237 64.6739 328.603 84.839 328.5 111.212C328.454 123.667 323.458 135.594 314.611 144.368C305.764 153.142 293.791 158.046 281.326 158C268.861 157.954 256.925 152.962 248.143 144.122C239.362 135.283 234.454 123.32 234.5 110.865V110.865ZM303.947 111.691C303.335 110.843 302.618 110.076 301.813 109.409C292.413 103.836 282.982 98.3074 273.519 92.8224C271.16 91.4417 269.28 92.4091 269.28 95.1047C269.186 106.213 269.186 117.32 269.28 128.428C269.28 131.143 271.16 132.185 273.51 130.805C283.048 125.294 292.548 119.722 302.011 114.086C302.706 113.645 303.12 112.687 303.956 111.691H303.947Z" fill="var(--fill-0, white)"/>
</g>
</svg>
