<svg width="16" height="20" viewBox="0 0 16 20" fill="none" xmlns="http://www.w3.org/2000/svg">
<circle cx="7.9974" cy="10.0003" r="6.66667" transform="rotate(180 7.9974 10.0003)" fill="white"/>
<path fill-rule="evenodd" clip-rule="evenodd" d="M8.0026 16.6663C11.6845 16.6663 14.6693 13.6816 14.6693 9.99967C14.6693 6.31778 11.6845 3.33301 8.0026 3.33301C4.32071 3.33301 1.33594 6.31778 1.33594 9.99967C1.33594 13.6816 4.32071 16.6663 8.0026 16.6663ZM8.00141 5.95907C8.55088 5.95907 8.99632 6.4045 8.99632 6.95397V10.3626C8.99632 10.9121 8.55088 11.3575 8.00141 11.3575C7.45194 11.3575 7.00651 10.9121 7.00651 10.3626L7.00651 6.95397C7.00651 6.4045 7.45194 5.95907 8.00141 5.95907ZM8.90513 13.1338C8.90513 13.6359 8.49811 14.0429 7.99603 14.0429C7.49396 14.0429 7.08694 13.6359 7.08694 13.1338C7.08694 12.6317 7.49396 12.2247 7.99603 12.2247C8.49811 12.2247 8.90513 12.6317 8.90513 13.1338Z" fill="#FF926E"/>
</svg>
