<svg width="20" height="20" viewBox="0 0 20 20" fill="none" xmlns="http://www.w3.org/2000/svg">
<path d="M10.5687 13.7066H9.42462L9.42462 9.32109H10.5687V13.7066Z" fill="#336AFF"/>
<path d="M9.99665 6.29264C10.4534 6.29276 10.8234 6.66341 10.8234 7.12014C10.8233 7.57679 10.4533 7.94677 9.99665 7.94689C9.5399 7.94689 9.16925 7.57686 9.16915 7.12014C9.16915 6.66333 9.53984 6.29264 9.99665 6.29264Z" fill="#336AFF"/>
<path fill-rule="evenodd" clip-rule="evenodd" d="M10.3862 2.50968C14.3488 2.71075 17.5 5.98781 17.5 10.0004L17.4903 10.3862C17.2892 14.3486 14.0127 17.4997 10.0004 17.5L9.61381 17.4903C5.77914 17.2958 2.7043 14.2208 2.50968 10.3862L2.5 10.0004C2.5 5.85824 5.85824 2.5 10.0004 2.5L10.3862 2.50968ZM10.0004 3.64405C6.49008 3.64405 3.64405 6.49008 3.64405 10.0004C3.64438 13.5104 6.49028 16.356 10.0004 16.356C13.5102 16.3557 16.3556 13.5102 16.356 10.0004C16.356 6.49025 13.5104 3.64433 10.0004 3.64405Z" fill="#336AFF"/>
</svg>
