<svg width="20" height="20" viewBox="0 0 20 20" fill="none" xmlns="http://www.w3.org/2000/svg">
<path d="M5.00015 7.08203H15.8335C16.0636 7.08203 16.2502 7.26858 16.2502 7.4987V14.9987C16.2502 15.2288 16.0636 15.4154 15.8335 15.4154H14.5979C14.0389 15.4154 13.4862 15.5325 12.9753 15.7592L10.9334 16.6654H15.8335C16.754 16.6654 17.5002 15.9192 17.5002 14.9987V7.4987C17.5002 6.57822 16.754 5.83203 15.8335 5.83203H5.00015C4.07968 5.83203 3.33349 6.57822 3.33349 7.4987V8.49328L4.58349 7.79229V7.4987C4.58349 7.26858 4.77004 7.08203 5.00015 7.08203Z" fill="#336AFF"/>
<path d="M5.00015 4.58203H13.3335C13.5636 4.58203 13.7502 4.76858 13.7502 4.9987H15.0002C15.0002 4.07822 14.254 3.33203 13.3335 3.33203H5.00015C4.07968 3.33203 3.33349 4.07822 3.33349 4.9987V7.4987L4.58349 7.27142V4.9987C4.58349 4.76858 4.77004 4.58203 5.00015 4.58203Z" fill="#336AFF"/>
<path d="M15.0002 11.2487C15.0002 11.7089 14.6271 12.082 14.1668 12.082C13.7066 12.082 13.3335 11.7089 13.3335 11.2487C13.3335 10.7885 13.7066 10.4154 14.1668 10.4154C14.6271 10.4154 15.0002 10.7885 15.0002 11.2487Z" fill="#336AFF"/>
<path d="M11.3491 15.4948L7.74891 17.2609C7.18423 17.5379 6.52213 17.5332 5.96149 17.2481L2.24805 15.3597V11.2252L6.46981 13.3238C6.7056 13.441 6.9829 13.4399 7.21773 13.3208L11.3491 11.2252V15.4948ZM7.35254 14.4507L7.23569 14.5029C6.99781 14.5928 6.73511 14.5957 6.49564 14.512L6.37879 14.4631L3.30881 12.9249V14.705L5.96378 16.06C6.52309 16.3455 7.18399 16.3517 7.74855 16.0768L10.2883 14.8401V12.9763L7.35254 14.4507ZM10.9334 10.2796L7.20522 12.2358C6.96876 12.3599 6.68715 12.3631 6.4479 12.2445L2.62135 10.3476L6.39597 8.45284C6.67823 8.31116 7.01083 8.31114 7.29311 8.45279L10.9334 10.2796ZM5.01056 10.3351L6.82878 11.2252L8.60556 10.2978L6.84453 9.41441L5.01056 10.3351Z" fill="#336AFF"/>
</svg>
