<svg width="16" height="16" viewBox="0 0 16 16" fill="none" xmlns="http://www.w3.org/2000/svg">
<circle cx="7.9974" cy="7.99935" r="6.66667" transform="rotate(180 7.9974 7.99935)" fill="white"/>
<path fill-rule="evenodd" clip-rule="evenodd" d="M8.0026 14.6673C11.6845 14.6673 14.6693 11.6825 14.6693 8.00065C14.6693 4.31875 11.6845 1.33398 8.0026 1.33398C4.32071 1.33398 1.33594 4.31875 1.33594 8.00065C1.33594 11.6825 4.32071 14.6673 8.0026 14.6673ZM8.00141 3.96004C8.55088 3.96004 8.99632 4.40548 8.99632 4.95495V8.36362C8.99632 8.91309 8.55088 9.35852 8.00141 9.35852C7.45194 9.35852 7.00651 8.91309 7.00651 8.36362L7.00651 4.95495C7.00651 4.40548 7.45194 3.96004 8.00141 3.96004ZM8.90513 11.1348C8.90513 11.6368 8.49811 12.0439 7.99603 12.0439C7.49396 12.0439 7.08694 11.6368 7.08694 11.1348C7.08694 10.6327 7.49396 10.2257 7.99603 10.2257C8.49811 10.2257 8.90513 10.6327 8.90513 11.1348Z" fill="#FF926E"/>
</svg>
