<svg width="20" height="20" viewBox="0 0 20 20" fill="none" xmlns="http://www.w3.org/2000/svg">
<path d="M16.0404 15.4164C16.3855 15.4164 16.6653 15.6963 16.6654 16.0414C16.6654 16.3866 16.3855 16.6664 16.0404 16.6664H3.95703C3.61185 16.6664 3.33203 16.3866 3.33203 16.0414C3.33208 15.6963 3.61188 15.4164 3.95703 15.4164H16.0404Z" fill="#797A7B"/>
<path d="M6.66536 8.95808C7.01051 8.95808 7.29032 9.23794 7.29036 9.58308V14.1664C7.29036 14.5116 7.01054 14.7914 6.66536 14.7914C6.32019 14.7914 6.04036 14.5116 6.04036 14.1664V9.58308C6.04041 9.23794 6.32022 8.95808 6.66536 8.95808Z" fill="#797A7B"/>
<path d="M9.9987 8.95808C10.3438 8.95808 10.6237 9.23794 10.6237 9.58308V14.1664C10.6237 14.5116 10.3439 14.7914 9.9987 14.7914C9.65352 14.7914 9.3737 14.5116 9.3737 14.1664V9.58308C9.37374 9.23794 9.65355 8.95808 9.9987 8.95808Z" fill="#797A7B"/>
<path d="M13.332 8.95808C13.6772 8.95808 13.957 9.23794 13.957 9.58308V14.1664C13.957 14.5116 13.6772 14.7914 13.332 14.7914C12.9869 14.7914 12.707 14.5116 12.707 14.1664V9.58308C12.7071 9.23794 12.9869 8.95808 13.332 8.95808Z" fill="#797A7B"/>
<path fill-rule="evenodd" clip-rule="evenodd" d="M9.72689 3.39493C9.92694 3.29831 10.1666 3.31489 10.3535 3.44375L16.3952 7.61042L16.4456 7.64948C16.6869 7.85474 16.7384 8.21316 16.5547 8.47956C16.371 8.74582 16.0176 8.82564 15.7401 8.67325L15.6855 8.63907L14.3354 7.70726L14.3322 7.70808H5.6652L5.66113 7.70726L4.31185 8.63907C4.02772 8.83502 3.63869 8.76365 3.44271 8.47956C3.2468 8.19544 3.31814 7.8064 3.60221 7.61042L9.64388 3.44375L9.72689 3.39493ZM7.47347 6.45808H12.5239L9.9987 4.71654L7.47347 6.45808Z" fill="#797A7B"/>
</svg>
