<svg width="16" height="20" viewBox="0 0 16 20" fill="none" xmlns="http://www.w3.org/2000/svg">
<path d="M3.19922 9.99922C3.19922 7.34825 5.34825 5.19922 7.99922 5.19922C10.6502 5.19922 12.7992 7.34825 12.7992 9.99922C12.7992 12.6502 10.6502 14.7992 7.99922 14.7992C5.34825 14.7992 3.19922 12.6502 3.19922 9.99922Z" fill="white"/>
<path fill-rule="evenodd" clip-rule="evenodd" d="M7.9987 3.33203C4.3168 3.33203 1.33203 6.3168 1.33203 9.9987C1.33203 13.6806 4.3168 16.6654 7.9987 16.6654C11.6806 16.6654 14.6654 13.6806 14.6654 9.9987C14.6654 6.3168 11.6806 3.33203 7.9987 3.33203ZM7.99989 14.0393C7.45042 14.0393 7.00499 13.5939 7.00499 13.0444V9.63573C7.00499 9.08626 7.45042 8.64083 7.99989 8.64083C8.54936 8.64083 8.99479 9.08626 8.99479 9.63573V13.0444C8.99479 13.5939 8.54936 14.0393 7.99989 14.0393ZM7.09618 6.86459C7.09618 6.36251 7.50319 5.9555 8.00527 5.9555C8.50735 5.9555 8.91436 6.36251 8.91436 6.86459C8.91436 7.36667 8.50735 7.77368 8.00527 7.77368C7.50319 7.77368 7.09618 7.36667 7.09618 6.86459Z" fill="#73A2F5"/>
</svg>
