<svg width="24" height="24" viewBox="0 0 24 24" fill="none" xmlns="http://www.w3.org/2000/svg">
<path d="M7.54004 19.2578C7.54927 19.3609 7.6357 19.4404 7.73926 19.4404H16.2607C16.3643 19.4404 16.4507 19.3609 16.46 19.2578L17.3821 8.71141C17.4173 8.30886 17.7544 8 18.1585 8C18.6124 8 18.9703 8.38645 18.9355 8.83906L18.071 20.0767C18.0309 20.5977 17.5965 21 17.074 21H6.92603C6.40349 21 5.96905 20.5977 5.92898 20.0767L5.06454 8.83906C5.02973 8.38645 5.38759 8 5.84154 8C6.24562 8 6.58267 8.30886 6.61787 8.71141L7.54004 19.2578Z" fill="#797A7B"/>
<path d="M10.9503 16.7048C10.9772 17.1357 10.635 17.5 10.2032 17.5C9.80794 17.5 9.48079 17.1927 9.45613 16.7982L9.0497 10.2952C9.02277 9.8643 9.36501 9.5 9.79678 9.5C10.1921 9.5 10.5192 9.80734 10.5439 10.2018L10.9503 16.7048Z" fill="#797A7B"/>
<path d="M14.5439 16.7982C14.5192 17.1927 14.1921 17.5 13.7968 17.5C13.365 17.5 13.0228 17.1357 13.0497 16.7048L13.4561 10.2018C13.4808 9.80734 13.8079 9.5 14.2032 9.5C14.635 9.5 14.9772 9.8643 14.9503 10.2952L14.5439 16.7982Z" fill="#797A7B"/>
<path d="M19.25 5C19.6642 5 20 5.33579 20 5.75C20 6.16421 19.6642 6.5 19.25 6.5H4.75C4.33579 6.5 4 6.16421 4 5.75C4 5.33579 4.33579 5 4.75 5H19.25Z" fill="#797A7B"/>
<path d="M13.75 3C14.1642 3 14.5 3.33579 14.5 3.75C14.5 4.16421 14.1642 4.5 13.75 4.5H10.25C9.83579 4.5 9.5 4.16421 9.5 3.75C9.5 3.33579 9.83579 3 10.25 3H13.75Z" fill="#797A7B"/>
</svg>
