<svg width="16" height="16" viewBox="0 0 16 16" fill="none" xmlns="http://www.w3.org/2000/svg">
  <circle cx="8" cy="8" r="6.667" transform="rotate(180 8 8)" fill="white"/>
  <path fill-rule="evenodd" clip-rule="evenodd" d="M8 14.667C11.682 14.667 14.667 11.682 14.667 8C14.667 4.318 11.682 1.333 8 1.333C4.318 1.333 1.333 4.318 1.333 8C1.333 11.682 4.318 14.667 8 14.667ZM5.757 5.757L8 8L10.243 5.757L10.95 6.464L8.707 8.707L10.95 10.95L10.243 11.657L8 9.414L5.757 11.657L5.05 10.95L7.293 8.707L5.05 6.464L5.757 5.757Z" fill="#EB5347"/>
</svg>
