<svg width="20" height="20" viewBox="0 0 20 20" fill="none" xmlns="http://www.w3.org/2000/svg">
<path d="M10.183 5.99936C10.3247 5.99955 10.4398 6.12133 10.44 6.27127V6.54135C10.4402 6.66875 10.5251 6.77686 10.64 6.81509C10.7175 6.84082 10.7924 6.87141 10.8644 6.90573C11.1494 7.03896 11.3874 7.23353 11.5775 7.48892C11.7189 7.67449 11.8318 7.89131 11.9165 8.13712C11.9674 8.28541 11.8726 8.43997 11.7257 8.46762L11.1624 8.57382C11.0264 8.59941 10.8979 8.50375 10.8393 8.37149C10.806 8.29654 10.766 8.22617 10.7179 8.16184C10.6203 8.02876 10.4976 7.92578 10.3513 7.85239C10.2074 7.77629 10.0464 7.7361 9.86913 7.73062C9.69949 7.72519 9.54421 7.75043 9.4054 7.80753C9.26965 7.86455 9.16023 7.94442 9.07812 8.04739C8.99855 8.14789 8.95854 8.26311 8.95842 8.39072C8.9585 8.53201 9.01537 8.65547 9.12834 8.75876C9.24142 8.85921 9.42192 8.94542 9.66824 9.01877L10.6484 9.31357C11.1388 9.46304 11.4922 9.66527 11.7081 9.92056C11.9266 10.1762 12.037 10.5154 12.0371 10.9368C12.0371 11.3064 11.9479 11.6318 11.7709 11.9118C11.5936 12.1918 11.3452 12.4114 11.0268 12.5692C10.9095 12.6277 10.7843 12.6743 10.6526 12.7102C10.5316 12.7431 10.4402 12.8554 10.44 12.9876V13.2274C10.4398 13.3774 10.3247 13.4992 10.183 13.4994H9.64815C9.50627 13.4994 9.39055 13.3775 9.39034 13.2274V12.9775C9.39006 12.8473 9.30209 12.7371 9.18359 12.7019C9.06923 12.6681 8.95936 12.6255 8.85463 12.5738C8.54106 12.416 8.28499 12.1937 8.08706 11.9082C7.93511 11.6868 7.8252 11.4343 7.7581 11.1519C7.72406 11.0076 7.82172 10.8693 7.96066 10.8462L8.51312 10.7564C8.6463 10.7346 8.77132 10.8257 8.82199 10.9579C8.90251 11.1684 9.02375 11.3444 9.1861 11.4843C9.40969 11.6745 9.67631 11.7699 9.98464 11.7699C10.275 11.7699 10.516 11.6971 10.7062 11.5529C10.8985 11.4089 10.9948 11.231 10.995 11.0192C10.9949 10.8752 10.9533 10.7555 10.8686 10.6631C10.7863 10.5679 10.655 10.4903 10.4777 10.4305L9.10574 9.9819C8.31383 9.72345 7.91797 9.21192 7.91797 8.44748C7.91807 8.08878 7.99732 7.77731 8.15653 7.51364C8.31851 7.24992 8.54657 7.04713 8.83956 6.90573C8.94506 6.85432 9.05787 6.81229 9.17689 6.7803C9.29869 6.74726 9.3903 6.63597 9.39034 6.5029V6.27127C9.39055 6.12121 9.50627 5.99936 9.64815 5.99936H10.183Z" fill="#336AFF"/>
<path d="M16.8071 9.86019C16.807 6.025 13.6974 2.91602 9.86214 2.91602C6.02704 2.91615 2.91811 6.02509 2.91797 9.86019C2.91797 13.6954 6.02696 16.805 9.86214 16.8052V18.0552L9.44059 18.0446C5.11095 17.8251 1.66797 14.2444 1.66797 9.86019C1.66811 5.33473 5.33669 1.66615 9.86214 1.66602C14.3877 1.66602 18.057 5.33465 18.0571 9.86019L18.0514 10.1572C17.9988 11.6349 17.5548 13.0133 16.8201 14.1912L18.0571 18.0552L14.1932 16.8182C12.9367 17.6019 11.452 18.0552 9.86214 18.0552V16.8052C11.2114 16.8052 12.4678 16.4213 13.5316 15.7578L14.0223 15.4518L14.5741 15.6276L16.126 16.124L15.6296 14.5721L15.4538 14.0203L15.7598 13.5296C16.4233 12.4658 16.8071 11.2095 16.8071 9.86019Z" fill="#336AFF"/>
</svg>
