<svg width="32" height="32" viewBox="0 0 32 32" fill="none" xmlns="http://www.w3.org/2000/svg">
<path d="M25.6693 24.6665C26.2215 24.6665 26.6692 25.1142 26.6693 25.6665C26.6693 26.2187 26.2216 26.6665 25.6693 26.6665L6.33594 26.6665C5.78365 26.6665 5.33594 26.2187 5.33594 25.6665C5.33601 25.1142 5.7837 24.6665 6.33594 24.6665L25.6693 24.6665Z" fill="#336AFF"/>
<path d="M10.6693 14.3331C11.2215 14.3331 11.6692 14.7809 11.6693 15.3331L11.6693 22.6665C11.6693 23.2187 11.2216 23.6665 10.6693 23.6665C10.117 23.6665 9.66927 23.2187 9.66927 22.6665L9.66927 15.3331C9.66935 14.7809 10.117 14.3331 10.6693 14.3331Z" fill="#336AFF"/>
<path d="M16.0026 14.3331C16.5548 14.3331 17.0025 14.7809 17.0026 15.3331L17.0026 22.6665C17.0026 23.2187 16.5549 23.6665 16.0026 23.6665C15.4503 23.6665 15.0026 23.2187 15.0026 22.6665L15.0026 15.3331C15.0027 14.7809 15.4504 14.3331 16.0026 14.3331Z" fill="#336AFF"/>
<path d="M21.3359 14.3331C21.8882 14.3331 22.3359 14.7809 22.3359 15.3331L22.3359 22.6665C22.3359 23.2187 21.8882 23.6665 21.3359 23.6665C20.7837 23.6665 20.3359 23.2187 20.3359 22.6665L20.3359 15.3331C20.336 14.7809 20.7837 14.3331 21.3359 14.3331Z" fill="#336AFF"/>
<path fill-rule="evenodd" clip-rule="evenodd" d="M15.5677 5.43208C15.8878 5.27749 16.2713 5.30402 16.5703 5.5102L26.237 12.1769L26.3177 12.2394C26.7038 12.5678 26.7861 13.1412 26.4922 13.5675C26.1983 13.9935 25.6329 14.1212 25.1888 13.8774L25.1016 13.8227L22.9414 12.3318L22.9362 12.3331L9.06901 12.3331L9.0625 12.3318L6.90365 13.8227C6.44904 14.1362 5.8266 14.022 5.51302 13.5675C5.19957 13.1129 5.31371 12.4904 5.76823 12.1769L15.4349 5.5102L15.5677 5.43208ZM11.9622 10.3331L20.043 10.3331L16.0026 7.54666L11.9622 10.3331Z" fill="#336AFF"/>
</svg>
