<svg width="28" height="28" viewBox="0 0 28 28" fill="none" xmlns="http://www.w3.org/2000/svg">
<path d="M23.625 14C23.625 8.68426 19.3157 4.375 14 4.375C8.68426 4.375 4.375 8.68426 4.375 14C4.375 19.3157 8.68426 23.625 14 23.625V25.375C7.71776 25.375 2.625 20.2822 2.625 14C2.625 7.71776 7.71776 2.625 14 2.625C20.2822 2.625 25.375 7.71776 25.375 14C25.375 20.2822 20.2822 25.375 14 25.375V23.625C19.3157 23.625 23.625 19.3157 23.625 14Z" fill="white"/>
<path d="M22.4937 21.2563L21.2563 22.4937L5.50635 6.74365L6.74365 5.50635L22.4937 21.2563Z" fill="white"/>
</svg>
