<svg width="32" height="32" viewBox="0 0 32 32" fill="none" xmlns="http://www.w3.org/2000/svg">
<g clip-path="url(#clip0_6710_53822)">
<circle cx="16" cy="16" r="16" fill="#DBFBAA"/>
<path d="M17.6667 18.7083C18.0118 18.7083 18.2917 18.9882 18.2917 19.3333C18.2917 19.6785 18.0118 19.9583 17.6667 19.9583H12.6667C12.3215 19.9583 12.0417 19.6785 12.0417 19.3333C12.0417 18.9882 12.3215 18.7083 12.6667 18.7083H17.6667Z" fill="#718E42"/>
<path d="M16.4167 15.7917C16.7618 15.7917 17.0417 16.0715 17.0417 16.4167C17.0417 16.7618 16.7618 17.0417 16.4167 17.0417H12.6667C12.3215 17.0417 12.0417 16.7618 12.0417 16.4167C12.0417 16.0715 12.3215 15.7917 12.6667 15.7917H16.4167Z" fill="#718E42"/>
<path fill-rule="evenodd" clip-rule="evenodd" d="M17.9824 8.5C18.2128 8.5 18.4328 8.59564 18.5903 8.76367L22.0246 12.4266C22.1693 12.581 22.25 12.7846 22.25 12.9963V22.6667C22.25 23.1269 21.8769 23.5 21.4167 23.5H10.5833C10.1231 23.5 9.75 23.1269 9.75 22.6667V9.33333C9.75 8.8731 10.1231 8.5 10.5833 8.5H17.9824ZM11.4167 9.75C11.1865 9.75 11 9.93655 11 10.1667V21.8333C11 22.0635 11.1865 22.25 11.4167 22.25H20.5833C20.8135 22.25 21 22.0635 21 21.8333V14.125H17.6667C17.3215 14.125 17.0417 13.8452 17.0417 13.5V9.75H11.4167ZM18.2917 12.875H20.7323L18.2917 10.2716V12.875Z" fill="#718E42"/>
</g>
<defs>
<clipPath id="clip0_6710_53822">
<rect width="32" height="32" fill="white"/>
</clipPath>
</defs>
</svg>
