<svg width="32" height="32" viewBox="0 0 32 32" fill="none" xmlns="http://www.w3.org/2000/svg">
<path d="M7.33513 26.6663C6.21054 26.6661 5.43772 25.9625 5.34543 24.8849L5.33594 24.665L5.33594 23.3303C5.33594 20.0018 10.5433 17.3236 16.0019 17.3235C21.4606 17.3235 26.6693 20.0018 26.6693 23.3303L26.6679 24.665L26.6598 24.8849C26.5736 25.891 25.8935 26.5708 24.8884 26.6568L24.6687 26.6663L7.33513 26.6663ZM19.0102 10.3378C19.0099 8.76072 17.6983 7.41855 16.0019 7.41855C14.3057 7.41872 12.9953 8.76082 12.995 10.3378C12.995 11.9149 14.3056 13.2582 16.0019 13.2583C17.6985 13.2583 19.0102 11.915 19.0102 10.3378ZM7.41922 24.5808L24.5846 24.5808L24.586 23.3303L24.5806 23.2298C24.525 22.7031 24.0269 21.8072 22.3833 20.908C20.7386 20.0083 18.4218 19.409 16.0019 19.409C13.582 19.4091 11.2652 20.0083 9.62051 20.908C7.86827 21.8667 7.41922 22.8226 7.41922 23.3303V24.5808ZM21.0867 10.5957C20.9504 13.2405 18.7257 15.3439 16.0019 15.3439C13.2783 15.3437 11.0548 13.2403 10.9185 10.5957L10.9117 10.3378C10.912 7.57377 13.1907 5.33318 16.0019 5.33301C18.8133 5.33301 21.0932 7.57366 21.0935 10.3378L21.0867 10.5957Z" fill="#336AFF"/>
</svg>
