<svg width="16" height="16" viewBox="0 0 16 16" fill="none" xmlns="http://www.w3.org/2000/svg">
<path d="M11.875 7.94L13.8745 9.93353L13.875 9.93299L13.8755 9.93353L15.875 7.94L15.135 7.2L14.3749 7.95776C14.3521 4.45639 11.5067 1.625 8 1.625C4.47918 1.625 1.625 4.47918 1.625 8C1.625 11.5208 4.47918 14.375 8 14.375C9.85112 14.375 11.5187 13.5855 12.6826 12.3262L11.9482 11.6475C10.9656 12.7105 9.56074 13.375 8 13.375C5.03147 13.375 2.625 10.9685 2.625 8C2.625 5.03147 5.03147 2.625 8 2.625C10.9543 2.625 13.352 5.00851 13.3748 7.95746L12.615 7.2L11.875 7.94Z" fill="#4779FF"/>
</svg>
