<svg width="26" height="26" viewBox="0 0 26 26" fill="none" xmlns="http://www.w3.org/2000/svg">
<circle cx="13.0003" cy="13.0013" r="10.8333" fill="white"/>
<path fill-rule="evenodd" clip-rule="evenodd" d="M13.0003 23.8346C18.9834 23.8346 23.8337 18.9844 23.8337 13.0013C23.8337 7.01822 18.9834 2.16797 13.0003 2.16797C7.01724 2.16797 2.16699 7.01822 2.16699 13.0013C2.16699 18.9844 7.01724 23.8346 13.0003 23.8346ZM18.761 8.85794C18.6357 8.73105 18.4648 8.65944 18.2865 8.65898C18.1081 8.65851 17.9369 8.72924 17.8109 8.85547L10.8913 15.9655L8.18999 13.262C8.06422 13.1362 7.89354 13.0655 7.71561 13.0657C7.53769 13.0659 7.36714 13.1369 7.24164 13.263L6.77714 13.7298C6.51691 13.9912 6.51719 14.4139 6.77776 14.6751L10.4174 18.3228C10.543 18.4487 10.7135 18.5195 10.8914 18.5195C11.0692 18.5195 11.2397 18.4488 11.3654 18.323L19.2231 10.2718C19.4832 10.0113 19.4842 9.58979 19.2255 9.328L18.761 8.85794Z" fill="#3FAE64"/>
</svg>
