<svg width="20" height="20" viewBox="0 0 20 20" fill="none" xmlns="http://www.w3.org/2000/svg">
<path d="M16.0443 15.4164C16.3894 15.4164 16.6692 15.6963 16.6693 16.0414C16.6693 16.3866 16.3894 16.6664 16.0443 16.6664H3.96094C3.61576 16.6664 3.33594 16.3866 3.33594 16.0414C3.33598 15.6963 3.61579 15.4164 3.96094 15.4164H16.0443Z" fill="#2F9752"/>
<path d="M6.66927 8.95808C7.01442 8.95808 7.29422 9.23794 7.29427 9.58308V14.1664C7.29427 14.5116 7.01445 14.7914 6.66927 14.7914C6.32409 14.7914 6.04427 14.5116 6.04427 14.1664V9.58308C6.04432 9.23794 6.32412 8.95808 6.66927 8.95808Z" fill="#2F9752"/>
<path d="M10.0026 8.95808C10.3478 8.95808 10.6276 9.23794 10.6276 9.58308V14.1664C10.6276 14.5116 10.3478 14.7914 10.0026 14.7914C9.65743 14.7914 9.3776 14.5116 9.3776 14.1664V9.58308C9.37765 9.23794 9.65745 8.95808 10.0026 8.95808Z" fill="#2F9752"/>
<path d="M13.3359 8.95808C13.6811 8.95808 13.9609 9.23794 13.9609 9.58308V14.1664C13.9609 14.5116 13.6811 14.7914 13.3359 14.7914C12.9908 14.7914 12.7109 14.5116 12.7109 14.1664V9.58308C12.711 9.23794 12.9908 8.95808 13.3359 8.95808Z" fill="#2F9752"/>
<path fill-rule="evenodd" clip-rule="evenodd" d="M9.73079 3.39493C9.93085 3.29831 10.1705 3.31489 10.3574 3.44375L16.3991 7.61042L16.4495 7.64948C16.6908 7.85474 16.7423 8.21316 16.5586 8.47956C16.3749 8.74582 16.0215 8.82564 15.744 8.67325L15.6895 8.63907L14.3394 7.70726L14.3361 7.70808H5.66911L5.66504 7.70726L4.31576 8.63907C4.03163 8.83502 3.6426 8.76365 3.44661 8.47956C3.25071 8.19544 3.32204 7.8064 3.60612 7.61042L9.64779 3.44375L9.73079 3.39493ZM7.47738 6.45808H12.5278L10.0026 4.71654L7.47738 6.45808Z" fill="#2F9752"/>
</svg>
