<svg width="14" height="14" viewBox="0 0 14 14" fill="none" xmlns="http://www.w3.org/2000/svg">
<path d="M7.61507 8.16419C7.23982 8.35971 6.793 8.36458 6.41423 8.17957L3.20703 6.60958V8.80449L6.9987 10.7083L10.7904 8.80449V6.5059L7.61507 8.16419ZM6.92065 2.3525C6.96988 2.32781 7.02752 2.32781 7.07674 2.3525L10.7818 4.21302C10.9096 4.27725 10.9109 4.46013 10.7841 4.52633L7.06991 6.46489L7.03174 6.47913C6.99223 6.48905 6.95005 6.48488 6.91268 6.4666L3.08512 4.59412C2.95473 4.53033 2.95372 4.34427 3.08341 4.2791L6.92065 2.3525ZM4.736 4.42721L6.97876 5.52438L9.16911 4.38164L6.99813 3.29187L4.736 4.42721ZM11.6585 9.28414C11.6452 9.33064 11.6129 9.37008 11.5685 9.39238L7.07674 11.6482C7.03984 11.6667 6.99817 11.6717 6.95882 11.6625L6.92065 11.6482L2.42887 9.39238C2.3845 9.37008 2.35222 9.33064 2.33887 9.28414L2.33203 9.23572V5.48906C2.33203 5.35917 2.46758 5.2738 2.58382 5.33069L6.79818 7.39344C6.92818 7.45694 7.08179 7.45513 7.21004 7.38831L11.4096 5.19568C11.5261 5.13488 11.6653 5.21992 11.6654 5.35177V9.23572L11.6585 9.28414Z" fill="#797A7B"/>
</svg>
