<svg width="60" height="60" viewBox="0 0 60 60" fill="none" xmlns="http://www.w3.org/2000/svg">
<g clip-path="url(#clip0_8780_34981)">
<path d="M44.6716 37.7143C45.1508 37.7143 45.5392 38.098 45.5392 38.5714C45.5392 39.0448 45.1508 39.4286 44.6716 39.4286H19.2206C18.7414 39.4286 18.3529 39.0448 18.3529 38.5714C18.3529 38.098 18.7414 37.7143 19.2206 37.7143H44.6716Z" fill="#1235BB"/>
<path d="M40.0441 32C40.5233 32 40.9118 32.3838 40.9118 32.8571C40.9118 33.3305 40.5233 33.7143 40.0441 33.7143H19.2206C18.7414 33.7143 18.3529 33.3305 18.3529 32.8571C18.3529 32.3838 18.7414 32 19.2206 32H40.0441Z" fill="#1235BB"/>
<path d="M42.3578 26.2857C42.837 26.2857 43.2255 26.6695 43.2255 27.1429C43.2255 27.6162 42.837 28 42.3578 28H19.2206C18.7414 28 18.3529 27.6162 18.3529 27.1429C18.3529 26.6695 18.7414 26.2857 19.2206 26.2857H42.3578Z" fill="#1235BB"/>
<path d="M42.3578 20.5714C42.837 20.5714 43.2255 20.9552 43.2255 21.4286C43.2255 21.902 42.837 22.2857 42.3578 22.2857H19.2206C18.7414 22.2857 18.3529 21.902 18.3529 21.4286C18.3529 20.9552 18.7414 20.5714 19.2206 20.5714H42.3578Z" fill="#1235BB"/>
<path d="M37.7304 14.8571C38.2096 14.8571 38.598 15.2409 38.598 15.7143C38.598 16.1877 38.2096 16.5714 37.7304 16.5714H19.2206C18.7414 16.5714 18.3529 16.1877 18.3529 15.7143C18.3529 15.2409 18.7414 14.8571 19.2206 14.8571H37.7304Z" fill="#1235BB"/>
<path d="M33.1029 9.14286C33.5821 9.14286 33.9706 9.52661 33.9706 10C33.9706 10.4734 33.5821 10.8571 33.1029 10.8571H19.2206C18.7414 10.8571 18.3529 10.4734 18.3529 10C18.3529 9.52661 18.7414 9.14286 19.2206 9.14286H33.1029Z" fill="#1235BB"/>
<path fill-rule="evenodd" clip-rule="evenodd" d="M44.6716 0C48.3453 0 51.3235 2.94213 51.3235 6.57143V45.1429H57.9755C59.0936 45.1429 60 46.0383 60 47.1429V53.4286C60 57.0579 57.0218 60 53.348 60H19.2206C15.5468 60 12.5686 57.0579 12.5686 53.4286V16H3.02451C1.9064 16 1 15.1046 1 14V6.57143C1 2.94213 3.97818 0 7.65196 0H44.6716ZM12.1314 1.71429C13.466 2.91613 14.3039 4.64689 14.3039 6.57143V53.4286C14.3039 56.1111 16.5052 58.2857 19.2206 58.2857H21.5343C24.2497 58.2857 26.451 56.1111 26.451 53.4286V47.1429C26.451 46.0376 27.3592 45.1429 28.4766 45.1429H49.5882V6.57143C49.5882 3.8889 47.387 1.71429 44.6716 1.71429H12.1314ZM28.4766 46.8571C28.3162 46.8571 28.1863 46.9857 28.1863 47.1429V53.4286C28.1863 55.3531 27.3483 57.0839 26.0138 58.2857H53.348C56.0634 58.2857 58.2647 56.1111 58.2647 53.4286V47.1429C58.2647 46.9851 58.1352 46.8571 57.9755 46.8571H28.4766ZM7.65196 1.71429C4.93656 1.71429 2.73529 3.8889 2.73529 6.57143V14C2.73529 14.1578 2.86478 14.2857 3.02451 14.2857H12.5686V6.57143C12.5686 3.8889 10.3674 1.71429 7.65196 1.71429Z" fill="#1235BB"/>
<circle cx="16" cy="38" r="16" fill="#F4CE34"/>
<g filter="url(#filter0_i_8780_34981)">
<path d="M29.9923 37.9454C29.9923 45.6946 23.7103 51.9767 15.961 51.9767C8.21171 51.9767 1.92969 45.6946 1.92969 37.9454C1.92969 30.1961 8.21171 23.9141 15.961 23.9141C23.7103 23.9141 29.9923 30.1961 29.9923 37.9454Z" fill="#FCD536"/>
</g>
<path d="M15.9609 23.9141C20.0917 23.9141 23.8054 25.6993 26.373 28.54C23.8838 26.287 20.5829 24.9141 16.9609 24.9141C9.2117 24.9141 2.92971 31.1961 2.92969 38.9453C2.92969 42.5672 4.30261 45.8681 6.55566 48.3574C3.71492 45.7897 1.92969 42.0761 1.92969 37.9453C1.92971 30.1961 8.2117 23.9141 15.9609 23.9141Z" fill="black"/>
<path d="M17.3685 31.0458C17.737 31.1266 18.0839 31.2394 18.4089 31.3851C19.1088 31.6927 19.6921 32.1416 20.1587 32.7317C20.6316 33.3154 20.9751 34.0279 21.1895 34.8689L18.5412 35.3397C18.4529 34.938 18.289 34.5865 18.0494 34.2852C17.8098 33.9777 17.5103 33.7392 17.1509 33.5697C16.7978 33.3939 16.4037 33.2998 15.9686 33.2872C15.5524 33.2747 15.1741 33.3343 14.8336 33.4661C14.4994 33.598 14.2314 33.783 14.0296 34.0215C13.8341 34.2538 13.7364 34.5175 13.7364 34.8125C13.7364 35.1389 13.8752 35.4214 14.1526 35.6599C14.4301 35.8921 14.8715 36.0931 15.4768 36.2625L17.8791 36.9404C19.0834 37.2856 19.9505 37.7533 20.4802 38.3434C21.0161 38.9334 21.2841 39.715 21.2841 40.6879C21.2841 41.5416 21.0667 42.2918 20.6316 42.9383C20.1966 43.5848 19.588 44.0901 18.8061 44.4542C18.3673 44.6602 17.888 44.8076 17.3685 44.897V46.601H14.7957V44.8818C14.3281 44.7927 13.8897 44.6537 13.4809 44.4636C12.7117 44.0995 12.0844 43.588 11.5989 42.9289C11.1134 42.2636 10.8043 41.4789 10.6719 40.575L13.2256 40.1794C13.3959 40.9201 13.7522 41.5103 14.2945 41.9497C14.8431 42.389 15.4957 42.6088 16.2523 42.6088C16.9648 42.6088 17.5544 42.4423 18.021 42.1096C18.4939 41.777 18.7304 41.3658 18.7304 40.8762C18.7304 40.5436 18.6264 40.2705 18.4183 40.0571C18.2166 39.8374 17.8981 39.6584 17.4631 39.5203L14.0957 38.4846C12.1537 37.8883 11.1827 36.7082 11.1827 34.9443C11.1827 34.1158 11.3781 33.397 11.769 32.7881C12.1663 32.1792 12.7244 31.7115 13.4433 31.3851C13.8528 31.1972 14.3037 31.0634 14.7957 30.9837V29.2949H17.3685V31.0458Z" fill="white"/>
</g>
<defs>
<filter id="filter0_i_8780_34981" x="1.92969" y="23.9141" width="28.0625" height="28.0625" filterUnits="userSpaceOnUse" color-interpolation-filters="sRGB">
<feFlood flood-opacity="0" result="BackgroundImageFix"/>
<feBlend mode="normal" in="SourceGraphic" in2="BackgroundImageFix" result="shape"/>
<feColorMatrix in="SourceAlpha" type="matrix" values="0 0 0 0 0 0 0 0 0 0 0 0 0 0 0 0 0 0 127 0" result="hardAlpha"/>
<feOffset dx="1" dy="1"/>
<feComposite in2="hardAlpha" operator="arithmetic" k2="-1" k3="1"/>
<feColorMatrix type="matrix" values="0 0 0 0 0 0 0 0 0 0 0 0 0 0 0 0 0 0 1 0"/>
<feBlend mode="normal" in2="shape" result="effect1_innerShadow_8780_34981"/>
</filter>
<clipPath id="clip0_8780_34981">
<rect width="60" height="60" fill="white"/>
</clipPath>
</defs>
</svg>
