<svg width="22" height="22" viewBox="0 0 22 22" fill="none" xmlns="http://www.w3.org/2000/svg">
<path d="M8.25 3.66667C8.25 3.11438 8.69772 2.66667 9.25 2.66667H12.75C13.3023 2.66667 13.75 3.11438 13.75 3.66667V4.58333H16.0417C16.3178 4.58333 16.5417 4.80719 16.5417 5.08333C16.5417 5.35948 16.3178 5.58333 16.0417 5.58333H5.95833C5.68219 5.58333 5.45833 5.35948 5.45833 5.08333C5.45833 4.80719 5.68219 4.58333 5.95833 4.58333H8.25V3.66667Z" fill="#DD483C"/>
<path fill-rule="evenodd" clip-rule="evenodd" d="M5.04167 6.41667C4.76552 6.41667 4.54167 6.64052 4.54167 6.91667V17.4167C4.54167 18.5213 5.4371 19.4167 6.54167 19.4167H15.4583C16.5629 19.4167 17.4583 18.5213 17.4583 17.4167V6.91667C17.4583 6.64052 17.2345 6.41667 16.9583 6.41667H5.04167ZM6.54167 8.33333C6.81781 8.33333 7.04167 8.55719 7.04167 8.83333V16.5C7.04167 16.7761 6.81781 17 6.54167 17C6.26552 17 6.04167 16.7761 6.04167 16.5V8.83333C6.04167 8.55719 6.26552 8.33333 6.54167 8.33333ZM11 8.33333C11.2761 8.33333 11.5 8.55719 11.5 8.83333V16.5C11.5 16.7761 11.2761 17 11 17C10.7239 17 10.5 16.7761 10.5 16.5V8.83333C10.5 8.55719 10.7239 8.33333 11 8.33333ZM15.4583 8.33333C15.7345 8.33333 15.9583 8.55719 15.9583 8.83333V16.5C15.9583 16.7761 15.7345 17 15.4583 17C15.1822 17 14.9583 16.7761 14.9583 16.5V8.83333C14.9583 8.55719 15.1822 8.33333 15.4583 8.33333Z" fill="#DD483C"/>
</svg>
