<svg width="20" height="20" viewBox="0 0 20 20" fill="none" xmlns="http://www.w3.org/2000/svg">
<path d="M10.8792 11.6609C10.3432 11.9402 9.70484 11.9472 9.16374 11.6829L4.58203 9.44003V12.5756L9.9987 15.2953L15.4154 12.5756V9.29192L10.8792 11.6609ZM9.88721 3.35849C9.95753 3.32322 10.0399 3.32321 10.1102 3.35849L15.4032 6.01636C15.5858 6.10813 15.5876 6.36938 15.4064 6.46395L10.1004 9.23332L10.0459 9.25367C9.98946 9.26783 9.92921 9.26189 9.87581 9.23576L4.40788 6.5608C4.2216 6.46967 4.22015 6.20386 4.40544 6.11076L9.88721 3.35849ZM6.76628 6.32235L9.97021 7.88974L13.0993 6.25725L9.99788 4.70045L6.76628 6.32235ZM16.6556 13.2608C16.6365 13.3272 16.5904 13.3836 16.527 13.4155L10.1102 16.6381C10.0575 16.6646 9.99795 16.6717 9.94173 16.6585L9.88721 16.6381L3.47038 13.4155C3.40698 13.3836 3.36087 13.3272 3.3418 13.2608L3.33203 13.1917V7.83928C3.33203 7.65373 3.52567 7.53177 3.69173 7.61304L9.71224 10.5598C9.89795 10.6505 10.1174 10.648 10.3006 10.5525L16.3 7.42017C16.4664 7.33331 16.6653 7.4548 16.6654 7.64315V13.1917L16.6556 13.2608Z" fill="#2F9752"/>
</svg>
