<svg width="16" height="20" viewBox="0 0 16 20" fill="none" xmlns="http://www.w3.org/2000/svg">
<circle cx="7.99935" cy="10.0013" r="6.66667" transform="rotate(180 7.99935 10.0013)" fill="white"/>
<path fill-rule="evenodd" clip-rule="evenodd" d="M8.00065 16.6654C11.6825 16.6654 14.6673 13.6806 14.6673 9.9987C14.6673 6.3168 11.6825 3.33203 8.00065 3.33203C4.31875 3.33203 1.33398 6.3168 1.33398 9.9987C1.33398 13.6806 4.31875 16.6654 8.00065 16.6654ZM7.99946 5.95809C8.54893 5.95809 8.99436 6.40352 8.99436 6.95299V10.3617C8.99436 10.9111 8.54893 11.3566 7.99946 11.3566C7.44999 11.3566 7.00456 10.9111 7.00456 10.3617L7.00456 6.95299C7.00456 6.40352 7.44999 5.95809 7.99946 5.95809ZM8.90317 13.1328C8.90317 13.6349 8.49616 14.0419 7.99408 14.0419C7.492 14.0419 7.08499 13.6349 7.08499 13.1328C7.08499 12.6307 7.492 12.2237 7.99408 12.2237C8.49616 12.2237 8.90317 12.6307 8.90317 13.1328Z" fill="#FF926E"/>
</svg>
