<svg width="16" height="16" viewBox="0 0 16 16" fill="none" xmlns="http://www.w3.org/2000/svg">
<path d="M3.20312 7.99922C3.20312 5.34825 5.35216 3.19922 8.00312 3.19922C10.6541 3.19922 12.8031 5.34825 12.8031 7.99922C12.8031 10.6502 10.6541 12.7992 8.00313 12.7992C5.35216 12.7992 3.20313 10.6502 3.20312 7.99922Z" fill="white"/>
<path fill-rule="evenodd" clip-rule="evenodd" d="M8.00261 1.33398C4.32071 1.33398 1.33594 4.31875 1.33594 8.00065C1.33594 11.6825 4.32071 14.6673 8.00261 14.6673C11.6845 14.6673 14.6693 11.6825 14.6693 8.00065C14.6693 4.31875 11.6845 1.33398 8.00261 1.33398ZM8.0038 12.0413C7.45432 12.0413 7.00889 11.5958 7.00889 11.0464V7.63768C7.00889 7.08821 7.45432 6.64278 8.0038 6.64278C8.55327 6.64278 8.9987 7.08821 8.9987 7.63768V11.0464C8.9987 11.5958 8.55327 12.0413 8.0038 12.0413ZM7.10008 4.86654C7.10008 4.36447 7.5071 3.95745 8.00917 3.95745C8.51125 3.95745 8.91827 4.36447 8.91827 4.86654C8.91827 5.36862 8.51125 5.77563 8.00917 5.77563C7.5071 5.77563 7.10008 5.36862 7.10008 4.86654Z" fill="#4D88FF"/>
</svg>
