<svg width="76" height="76" viewBox="0 0 76 76" fill="none" xmlns="http://www.w3.org/2000/svg">
<path d="M52.1293 56.6658C51.3046 55.8405 50.0081 55.7546 49.0069 56.3533C47.286 57.3825 45.4077 58.174 43.4168 58.681C42.2871 58.9687 41.4317 59.9465 41.4317 61.1132V62.9151C41.4317 64.3282 42.6663 65.4334 44.0465 65.1357C47.3296 64.4275 50.3944 63.1333 53.1278 61.368C54.3147 60.6015 54.4074 58.9455 53.4085 57.9459L52.1293 56.6658Z" fill="#336AFF"/>
<path d="M61.1173 41.4106C59.9518 41.4107 58.975 42.2666 58.6876 43.3971C58.1809 45.3898 57.3902 47.2698 56.362 48.9923C55.7638 49.9944 55.8496 51.2921 56.6744 52.1175L57.953 53.3973C58.9519 54.397 60.6064 54.3041 61.3723 53.1162C63.1362 50.3805 64.4293 47.3134 65.1368 44.0274C65.4343 42.6459 64.3299 41.4103 62.918 41.4104L61.1173 41.4106Z" fill="#336AFF"/>
<path d="M56.6741 24.2698C55.8493 25.0952 55.7635 26.3929 56.3617 27.395C57.3901 29.1175 58.1809 30.9976 58.6874 32.9908C58.9748 34.1215 59.9518 34.9777 61.1176 34.9777H62.9178C64.3297 34.9777 65.434 33.742 65.1365 32.3607C64.4289 29.0747 63.1358 26.0071 61.372 23.2712C60.6061 22.0832 58.9516 21.9903 57.9527 22.99L56.6741 24.2698Z" fill="#336AFF"/>
<path d="M41.6814 14.8632C41.6642 16.0304 42.5058 17.0213 43.6325 17.3232C45.5692 17.8421 47.4451 18.6395 49.1959 19.7164C50.189 20.3274 51.4859 20.2605 52.3223 19.4477L53.6139 18.1926C54.6269 17.2082 54.5591 15.5518 53.3842 14.7681C50.5895 12.9039 47.5267 11.6046 44.357 10.8714C42.9806 10.553 41.7289 11.6399 41.7081 13.0536L41.6814 14.8632Z" fill="#336AFF"/>
<path d="M35.0051 60.9716C35.032 59.8046 34.1986 58.8068 33.0745 58.4956C31.1421 57.9607 29.2728 57.1477 27.5311 56.0563C26.543 55.4372 25.2456 55.4934 24.4025 56.2992L23.1006 57.5436C22.0795 58.5195 22.1336 60.1764 23.302 60.9698C26.0812 62.8571 29.1331 64.1817 32.2967 64.9411C33.6704 65.2709 34.931 64.1943 34.9635 62.7809L35.0051 60.9716Z" fill="#336AFF"/>
<path fill-rule="evenodd" clip-rule="evenodd" d="M43.0933 57.4086C44.9589 56.9335 46.7197 56.1917 48.334 55.2263C49.786 54.358 51.7557 54.4352 53.057 55.7374L54.3361 57.0174C55.861 58.5434 55.8039 61.2025 53.8391 62.4714C50.9757 64.3207 47.7639 65.6771 44.3229 66.4193C42.0374 66.9123 40.1198 65.0721 40.1198 62.9152V61.1133C40.1198 59.2721 41.457 57.8252 43.0933 57.4086ZM55.2358 48.319C56.2003 46.7032 56.9414 44.9408 57.4162 43.0734C57.8325 41.4359 59.278 40.0978 61.1172 40.0976L62.9179 40.0975C65.073 40.0973 66.9119 42.0165 66.4194 44.3041C65.6778 47.7482 64.3225 50.9624 62.4747 53.8283C61.2069 55.7946 58.5501 55.8519 57.0254 54.3259L55.7467 53.0461C54.4455 51.7438 54.3683 49.7722 55.2358 48.319ZM57.416 33.3145C56.9414 31.4468 56.2001 29.6843 55.2355 28.0685C54.368 26.6153 54.4452 24.6437 55.7464 23.3414L57.0251 22.0617C58.5498 20.5356 61.2066 20.5929 62.4744 22.5594C64.3222 25.4255 65.6774 28.6402 66.419 32.0841C66.9116 34.3716 65.0729 36.2908 62.9179 36.2908H61.1176C59.2779 36.2908 57.8322 34.9524 57.416 33.3145ZM48.5089 20.8352C46.8685 19.8261 45.11 19.0784 43.2933 18.5916C41.6593 18.1538 40.3425 16.6855 40.3697 14.8439L40.3963 13.0343C40.4281 10.8764 42.3742 9.06518 44.6524 9.59216C47.973 10.3602 51.1827 11.7217 54.1118 13.6756C56.0574 14.9733 56.074 17.6322 54.5278 19.1347L53.2362 20.3899C51.9163 21.6725 49.9475 21.7201 48.5089 20.8352ZM28.2273 54.9435C29.8594 55.9661 31.6116 56.7284 33.4242 57.2301C35.0545 57.6814 36.3591 59.1606 36.3168 61.0019L36.2751 62.8112C36.2255 64.9689 34.2646 66.7639 31.9908 66.2181C28.6767 65.4225 25.4783 64.0345 22.5654 62.0565C20.6307 60.7426 20.636 58.0837 22.1945 56.5941L23.4965 55.3497C24.8269 54.078 26.7961 54.0467 28.2273 54.9435ZM41.6814 14.8632C41.6642 16.0304 42.5058 17.0213 43.6325 17.3232C45.5692 17.8421 47.4451 18.6395 49.1959 19.7164C50.189 20.3274 51.4859 20.2605 52.3223 19.4477L53.6139 18.1926C54.6269 17.2082 54.5591 15.5518 53.3842 14.7681C50.5895 12.9039 47.5267 11.6046 44.357 10.8714C42.9806 10.553 41.7289 11.6399 41.7081 13.0536L41.6814 14.8632ZM49.0069 56.3533C50.0081 55.7546 51.3046 55.8405 52.1293 56.6658L53.4085 57.9459C54.4074 58.9455 54.3147 60.6015 53.1278 61.368C50.3944 63.1333 47.3296 64.4275 44.0465 65.1357C42.6663 65.4334 41.4317 64.3282 41.4317 62.9151V61.1132C41.4317 59.9465 42.2871 58.9687 43.4168 58.681C45.4077 58.174 47.286 57.3825 49.0069 56.3533ZM61.1173 41.4106C59.9518 41.4107 58.975 42.2666 58.6876 43.3971C58.1809 45.3898 57.3902 47.2698 56.362 48.9923C55.7638 49.9944 55.8496 51.2921 56.6744 52.1175L57.953 53.3973C58.9519 54.397 60.6064 54.3041 61.3723 53.1162C63.1362 50.3805 64.4293 47.3134 65.1368 44.0274C65.4343 42.6459 64.3299 41.4103 62.918 41.4104L61.1173 41.4106ZM56.3617 27.395C55.7635 26.3929 55.8493 25.0952 56.6741 24.2698L57.9527 22.99C58.9516 21.9903 60.6061 22.0832 61.372 23.2712C63.1358 26.0071 64.4289 29.0747 65.1365 32.3607C65.434 33.742 64.3297 34.9777 62.9178 34.9777H61.1176C59.9518 34.9777 58.9748 34.1215 58.6874 32.9908C58.1809 30.9976 57.3901 29.1175 56.3617 27.395ZM33.0745 58.4956C34.1986 58.8068 35.032 59.8046 35.0051 60.9716L34.9635 62.7809C34.931 64.1943 33.6704 65.2709 32.2967 64.9411C29.1331 64.1817 26.0812 62.8571 23.302 60.9698C22.1336 60.1764 22.0795 58.5195 23.1006 57.5436L24.4025 56.2992C25.2456 55.4934 26.543 55.4372 27.5311 56.0563C29.2728 57.1477 31.1421 57.9607 33.0745 58.4956Z" fill="#336AFF"/>
<path opacity="0.15" fill-rule="evenodd" clip-rule="evenodd" d="M32.9066 18.9352C31.0411 19.4102 29.2803 20.1521 27.6659 21.1175C26.214 21.9858 24.2442 21.9086 22.943 20.6064L21.6639 19.3263C20.139 17.8004 20.1961 15.1413 22.1608 13.8723C25.0243 12.023 28.2361 10.6667 31.677 9.92443C33.9626 9.43144 35.8802 11.2717 35.8802 13.4286V15.2305C35.8802 17.0716 34.5429 18.5185 32.9066 18.9352ZM20.7642 28.0248C19.7997 29.6406 19.0585 31.403 18.5838 33.2704C18.1675 34.9079 16.722 36.2459 14.8828 36.2461L13.0821 36.2463C10.9269 36.2465 9.08804 34.3273 9.5806 32.0397C10.3222 28.5956 11.6775 25.3814 13.5253 22.5155C14.7931 20.5491 17.4498 20.4918 18.9746 22.0179L20.2532 23.2977C21.5545 24.6 21.6317 26.5715 20.7642 28.0248ZM18.5839 43.0292C19.0586 44.8969 19.7998 46.6594 20.7644 48.2752C21.632 49.7285 21.5548 51.7 20.2535 53.0024L18.9749 54.2821C17.4501 55.8082 14.7933 55.7508 13.5256 53.7844C11.6778 50.9182 10.3225 47.7036 9.58094 44.2596C9.08837 41.9721 10.927 40.0529 13.0821 40.0529H14.8824C16.722 40.0529 18.1677 41.3914 18.5839 43.0292Z" fill="#797A7B"/>
</svg>
