<svg width="20" height="20" viewBox="0 0 20 20" fill="none" xmlns="http://www.w3.org/2000/svg">
<path d="M4.9982 7.08301H15.8315C16.0617 7.08301 16.2482 7.26956 16.2482 7.49967V14.9997C16.2482 15.2298 16.0617 15.4163 15.8315 15.4163H14.5959C14.037 15.4163 13.4843 15.5335 12.9734 15.7602L10.9315 16.6663H15.8315C16.752 16.6663 17.4982 15.9201 17.4982 14.9997V7.49967C17.4982 6.5792 16.752 5.83301 15.8315 5.83301H4.9982C4.07773 5.83301 3.33153 6.5792 3.33153 7.49967V8.49425L4.58153 7.79327V7.49967C4.58153 7.26956 4.76808 7.08301 4.9982 7.08301Z" fill="#797A7B"/>
<path d="M4.9982 4.58301H13.3315C13.5617 4.58301 13.7482 4.76956 13.7482 4.99967H14.9982C14.9982 4.0792 14.252 3.33301 13.3315 3.33301H4.9982C4.07773 3.33301 3.33153 4.0792 3.33153 4.99967V7.49967L4.58153 7.2724V4.99967C4.58153 4.76956 4.76808 4.58301 4.9982 4.58301Z" fill="#797A7B"/>
<path d="M14.9982 11.2497C14.9982 11.7099 14.6251 12.083 14.1649 12.083C13.7046 12.083 13.3315 11.7099 13.3315 11.2497C13.3315 10.7894 13.7046 10.4163 14.1649 10.4163C14.6251 10.4163 14.9982 10.7894 14.9982 11.2497Z" fill="#797A7B"/>
<path d="M11.3472 15.4957L7.74696 17.2619C7.18228 17.5389 6.52018 17.5341 5.95953 17.249L2.24609 15.3606V11.2262L6.46786 13.3248C6.70364 13.442 6.98095 13.4408 7.21578 13.3217L11.3472 11.2262V15.4957ZM7.35059 14.4516L7.23374 14.5038C6.99585 14.5938 6.73316 14.5967 6.49369 14.513L6.37684 14.4641L3.30686 12.9259V14.706L5.96183 16.061C6.52113 16.3465 7.18203 16.3527 7.7466 16.0778L10.2864 14.841V12.9772L7.35059 14.4516ZM10.9315 10.2806L7.20327 12.2368C6.9668 12.3609 6.6852 12.3641 6.44595 12.2455L2.6194 10.3485L6.39402 8.45382C6.67628 8.31213 7.00888 8.31211 7.29115 8.45377L10.9315 10.2806ZM5.00861 10.3361L6.82683 11.2262L8.60361 10.2988L6.84257 9.41539L5.00861 10.3361Z" fill="#797A7B"/>
</svg>
