<svg width="32" height="32" viewBox="0 0 32 32" fill="none" xmlns="http://www.w3.org/2000/svg">
<path d="M28.0016 25.7943C28.4986 25.7943 28.9016 26.1973 28.9016 26.6943C28.9016 27.1914 28.4986 27.5943 28.0016 27.5943L4.00156 27.5943C3.50451 27.5943 3.10156 27.1914 3.10156 26.6943C3.10156 26.1973 3.50451 25.7943 4.00156 25.7943L28.0016 25.7943Z" fill="#336AFF"/>
<path d="M26.2211 26.5443H24.4211L24.4211 6.20527L14.3324 6.20527L14.3324 26.692L12.5324 26.692L12.5324 5.90527C12.5324 5.07685 13.204 4.40528 14.0324 4.40527L24.7211 4.40527C25.5493 4.40549 26.2211 5.07698 26.2211 5.90527L26.2211 26.5443Z" fill="#336AFF"/>
<path d="M5.78243 14.6979C5.78277 13.7744 6.78256 13.1978 7.58243 13.6596L13.4359 17.0381L12.5359 18.5979L7.58243 15.7373L7.58243 26.6885H5.78243L5.78243 14.6979Z" fill="#336AFF"/>
<path d="M21.7211 9.13848L21.7188 10.9385L17.0828 10.935L17.0852 9.13496L21.7211 9.13848Z" fill="#336AFF"/>
<path d="M21.7211 13.9385L21.7188 15.7385L17.0828 15.735L17.0852 13.935L21.7211 13.9385Z" fill="#336AFF"/>
<path d="M21.7211 18.7385L21.7188 20.5385L17.0828 20.535L17.0852 18.735L21.7211 18.7385Z" fill="#336AFF"/>
</svg>
