<svg width="32" height="32" viewBox="0 0 32 32" fill="none" xmlns="http://www.w3.org/2000/svg">
<path d="M12.8372 15.5912C14.4644 15.5912 16.0218 16.2729 17.1526 17.48L19.6825 20.1811C20.0764 20.6016 20.347 21.1292 20.4636 21.7015L20.4951 21.8551C20.8945 23.8156 19.3486 25.6191 17.4138 25.4492C16.8076 25.3959 16.2324 25.1461 15.7709 24.7371L12.5457 21.8798L13.0719 21.2472L13.5981 20.6159L16.8233 23.4731C17.0275 23.6542 17.283 23.7646 17.5513 23.7882C18.4075 23.863 19.0921 23.065 18.9153 22.1974L18.8838 22.0438C18.8298 21.7787 18.704 21.5345 18.5216 21.3396L15.9917 18.6385C15.1653 17.7561 14.0266 17.2575 12.8372 17.2574H8.01084V15.5912H12.8372Z" fill="#336AFF"/>
<path d="M23.3757 20.4038C24.055 19.9896 24.8623 19.8593 25.6318 20.0393L25.7176 20.0588C26.6708 20.2818 27.4533 20.9815 27.8034 21.9229C28.2996 23.2577 27.8201 24.7687 26.6552 25.543L22.3978 28.3729C19.7291 30.1464 16.3599 30.3673 13.4946 28.9574L7.66252 26.0884L8.35904 24.5836L14.1898 27.4539C16.5499 28.6152 19.3252 28.4331 21.5234 26.9723L25.7807 24.1423C26.303 23.7952 26.5181 23.1174 26.2955 22.5191C26.1386 22.0973 25.7876 21.7847 25.3605 21.6847L25.2747 21.6638C24.9073 21.5779 24.5215 21.6405 24.1972 21.8383L19.6711 24.5979L19.261 23.8807L18.8497 23.1634L23.3757 20.4038Z" fill="#336AFF"/>
<path d="M3.85729 26.5057H7.01306L7.01306 15.868H3.85729L3.85729 26.5057ZM8.62816 26.6723C8.62816 27.5005 7.97732 28.1718 7.17457 28.1719H3.69578C2.89298 28.1719 2.24219 27.5005 2.24219 26.6723L2.24219 15.7014C2.24219 14.8732 2.89299 14.2018 3.69578 14.2018H7.17457C7.97732 14.2018 8.62816 14.8732 8.62816 15.7014V26.6723Z" fill="#336AFF"/>
<path d="M25.5659 7.74481C24.3083 4.00661 20.3513 2.028 16.7277 3.32546C13.1042 4.62291 11.1863 8.70511 12.4439 12.4433L10.9181 12.9896C9.36798 8.38211 11.7319 3.35055 16.1982 1.75136C20.6644 0.152175 25.5416 2.59093 27.0918 7.19847C28.6419 11.806 26.2779 16.8376 21.8117 18.4368L21.2821 16.8627C24.9057 15.5652 26.8236 11.483 25.5659 7.74481Z" fill="#336AFF"/>
<path d="M19.355 5.24784C19.5335 5.24809 19.6783 5.40625 19.6786 5.601V5.95178C19.6789 6.11724 19.7858 6.25765 19.9304 6.30731C20.0279 6.34073 20.1222 6.38046 20.2128 6.42503C20.5717 6.59806 20.8713 6.85077 21.1107 7.18247C21.2887 7.42349 21.4308 7.70508 21.5375 8.02434C21.6015 8.21694 21.4821 8.41769 21.2972 8.45359L20.588 8.59153C20.4169 8.62476 20.255 8.50052 20.1812 8.32874C20.1394 8.2314 20.089 8.14 20.0284 8.05644C19.9055 7.88361 19.7511 7.74985 19.5669 7.65453C19.3857 7.5557 19.183 7.50351 18.9599 7.49639C18.7463 7.48933 18.5508 7.52211 18.3761 7.59627C18.2051 7.67033 18.0674 7.77406 17.964 7.90781C17.8639 8.03833 17.8135 8.18797 17.8133 8.35371C17.8134 8.53722 17.885 8.69757 18.0273 8.83172C18.1696 8.96219 18.3969 9.07416 18.707 9.16942L19.941 9.5523C20.5583 9.74644 21.0032 10.0091 21.2751 10.3407C21.5501 10.6726 21.6891 11.1132 21.6892 11.6605C21.6892 12.1406 21.577 12.5632 21.3541 12.9269C21.1309 13.2905 20.8182 13.5758 20.4173 13.7807C20.2696 13.8567 20.112 13.9172 19.9462 13.9638C19.7939 14.0065 19.6788 14.1524 19.6786 14.3241V14.6356C19.6783 14.8304 19.5335 14.9885 19.355 14.9888L18.6817 14.9888C18.503 14.9888 18.3574 14.8305 18.3571 14.6356V14.311C18.3567 14.1419 18.246 13.9987 18.0968 13.9531C17.9528 13.9091 17.8145 13.8538 17.6827 13.7866C17.2879 13.5817 16.9655 13.293 16.7163 12.9221C16.525 12.6346 16.3867 12.3067 16.3022 11.94C16.2593 11.7524 16.3823 11.5729 16.5572 11.5428L17.2527 11.4263C17.4204 11.398 17.5778 11.5162 17.6416 11.6879C17.7429 11.9613 17.8956 12.1899 18.1 12.3716C18.3815 12.6187 18.7171 12.7425 19.1053 12.7426C19.4709 12.7425 19.7742 12.648 20.0137 12.4608C20.2558 12.2737 20.377 12.0426 20.3772 11.7676C20.3771 11.5805 20.3248 11.425 20.2181 11.305C20.1145 11.1815 19.9492 11.0807 19.726 11.003L17.9988 10.4203C17.0018 10.0846 16.5035 9.42029 16.5035 8.42743C16.5036 7.96156 16.6033 7.55702 16.8038 7.21457C17.0077 6.87206 17.2948 6.60868 17.6637 6.42503C17.7965 6.35825 17.9385 6.30367 18.0884 6.26212C18.2417 6.2192 18.357 6.07466 18.3571 5.90183V5.601C18.3574 5.4061 18.503 5.24784 18.6817 5.24784H19.355Z" fill="#336AFF"/>
</svg>
