<svg width="16" height="16" viewBox="0 0 16 16" fill="none" xmlns="http://www.w3.org/2000/svg">
<path d="M10.8229 13.6488V14.6488H5.17708V13.6488H10.8229ZM12.1563 12.3155V6.56623H3.84375V12.3155C3.84381 13.0518 4.44074 13.6488 5.17708 13.6488V14.6488L5.05729 14.6456C3.86402 14.5852 2.90741 13.6285 2.84701 12.4353L2.84375 12.3155V5.56624H13.1563V12.3155L13.153 12.4353C13.0926 13.6285 12.136 14.5852 10.9427 14.6456L10.8229 14.6488V13.6488C11.5593 13.6488 12.1562 13.0518 12.1563 12.3155Z" fill="#E6B97A"/>
<path d="M10.029 4.38216C10.0288 3.26174 9.12016 2.35352 7.9997 2.35352C6.87938 2.35368 5.97122 3.26185 5.97105 4.38216V6.03516H4.97105V4.38216C4.97122 2.70956 6.3271 1.35368 7.9997 1.35352C9.67244 1.35352 11.0288 2.70946 11.029 4.38216V6.03516H10.029V4.38216Z" fill="#E6B97A"/>
<path d="M8.50001 9.66222V11.6427H7.50001V9.66222H8.50001Z" fill="#E6B97A"/>
<path d="M9.02679 9.59892C9.02679 10.166 8.56708 10.6257 8 10.6257C7.43292 10.6257 6.97321 10.166 6.97321 9.59892C6.97321 9.03184 7.43292 8.57213 8 8.57213C8.56708 8.57213 9.02679 9.03184 9.02679 9.59892Z" fill="#E6B97A"/>
</svg>
