<svg width="46" height="46" viewBox="0 0 46 46" fill="none" xmlns="http://www.w3.org/2000/svg">
<path fill-rule="evenodd" clip-rule="evenodd" d="M22.9987 3.83203C12.4136 3.83203 3.83203 12.4136 3.83203 22.9987C3.83203 33.5838 12.4136 42.1654 22.9987 42.1654C33.5838 42.1654 42.1654 33.5838 42.1654 22.9987C42.1654 12.4136 33.5838 3.83203 22.9987 3.83203Z" fill="#009393"/>
<path fill-rule="evenodd" clip-rule="evenodd" d="M25.2718 25.3187C25.1448 25.3276 24.4883 25.364 23.024 25.364C21.8593 25.364 21.0323 25.3315 20.7422 25.3187C16.2412 25.1345 12.8816 24.4054 12.8816 23.5324C12.8816 22.6594 16.2412 21.9313 20.7422 21.7441V24.5926C21.0366 24.6123 21.8794 24.6586 23.0441 24.6586C24.4417 24.6586 25.1416 24.6044 25.2676 24.5935V21.7461C29.7591 21.9323 33.1113 22.6614 33.1113 23.5324C33.1113 24.4034 29.7601 25.1325 25.2676 25.3177L25.2718 25.3187ZM25.2718 21.4515V18.9026H31.54V15.0156H14.474V18.9026H20.7412V21.4505C15.6472 21.6682 11.8164 22.6072 11.8164 23.7324C11.8164 24.8576 15.6472 25.7956 20.7412 26.0143V34.1823H25.2708V26.0114C30.3531 25.7936 34.1775 24.8556 34.1775 23.7314C34.1775 22.6072 30.3563 21.6692 25.2708 21.4505L25.2718 21.4515Z" fill="white"/>
</svg>
