<svg width="22" height="22" viewBox="0 0 22 22" fill="none" xmlns="http://www.w3.org/2000/svg">
<path fill-rule="evenodd" clip-rule="evenodd" d="M13.3939 3.55469L17.7769 7.93765L7.93765 17.7769L3.55881 17.7727L3.55469 13.3939L13.3939 3.55469ZM4.90757 13.9535L4.9099 16.4216L7.37801 16.424L15.8643 7.93765L13.3939 5.46721L4.90757 13.9535Z" fill="#2D2F2F"/>
<path fill-rule="evenodd" clip-rule="evenodd" d="M13.3939 3.55469L17.7769 7.93765L7.93765 17.7769L3.55881 17.7727L3.55469 13.3939L13.3939 3.55469ZM4.90757 13.9535L4.9099 16.4216L7.37801 16.424L15.8643 7.93765L13.3939 5.46721L4.90757 13.9535Z" fill="#2D2F2F"/>
<path fill-rule="evenodd" clip-rule="evenodd" d="M13.8994 11.0633L10.2509 7.41479L11.2072 6.45852L14.8557 10.1071L13.8994 11.0633Z" fill="#2D2F2F"/>
</svg>
