<svg width="26" height="26" viewBox="0 0 26 26" fill="none" xmlns="http://www.w3.org/2000/svg">
<path d="M17.8338 19.3857C17.5517 19.1033 17.1081 19.0739 16.7656 19.2788C16.1769 19.6309 15.5343 19.9016 14.8532 20.0751C14.4667 20.1735 14.1741 20.508 14.1741 20.9071V21.5236C14.1741 22.007 14.5965 22.3851 15.0686 22.2832C16.1918 22.041 17.2403 21.5982 18.1754 20.9943C18.5814 20.7321 18.6132 20.1656 18.2714 19.8236L17.8338 19.3857Z" fill="#73A2F5"/>
<path d="M20.9086 14.1668C20.5099 14.1668 20.1757 14.4596 20.0774 14.8464C19.9041 15.5281 19.6336 16.1712 19.2818 16.7605C19.0772 17.1034 19.1066 17.5473 19.3887 17.8297L19.8261 18.2675C20.1678 18.6095 20.7339 18.5777 20.9959 18.1713C21.5993 17.2354 22.0417 16.1862 22.2838 15.062C22.3855 14.5894 22.0077 14.1667 21.5247 14.1667L20.9086 14.1668Z" fill="#73A2F5"/>
<path d="M19.3886 8.30281C19.1065 8.5852 19.0771 9.02914 19.2817 9.37196C19.6335 9.96125 19.9041 10.6044 20.0774 11.2863C20.1757 11.6732 20.5099 11.9661 20.9087 11.9661H21.5246C22.0076 11.9661 22.3854 11.5433 22.2836 11.0708C22.0416 9.94662 21.5992 8.89718 20.9958 7.96119C20.7338 7.55478 20.1677 7.52301 19.826 7.86501L19.3886 8.30281Z" fill="#73A2F5"/>
<path d="M14.2595 5.08478C14.2537 5.48409 14.5416 5.82307 14.927 5.92634C15.5896 6.10386 16.2313 6.37669 16.8303 6.7451C17.17 6.9541 17.6137 6.93121 17.8998 6.65316L18.3417 6.22377C18.6882 5.88702 18.6651 5.32035 18.2631 5.05225C17.307 4.41449 16.2592 3.96998 15.1749 3.71916C14.704 3.61024 14.2758 3.98208 14.2687 4.4657L14.2595 5.08478Z" fill="#73A2F5"/>
<path d="M11.9755 20.8587C11.9847 20.4595 11.6996 20.1181 11.3151 20.0116C10.654 19.8286 10.0145 19.5505 9.41863 19.1772C9.0806 18.9654 8.63675 18.9846 8.34834 19.2602L7.90294 19.686C7.55362 20.0198 7.57213 20.5867 7.97183 20.8581C8.9226 21.5037 9.9667 21.9569 11.049 22.2167C11.5189 22.3295 11.9502 21.9612 11.9613 21.4777L11.9755 20.8587Z" fill="#73A2F5"/>
<path fill-rule="evenodd" clip-rule="evenodd" d="M14.7426 19.6398C15.3808 19.4773 15.9832 19.2235 16.5354 18.8932C17.0321 18.5961 17.706 18.6226 18.1512 19.0681L18.5888 19.506C19.1104 20.028 19.0909 20.9377 18.4188 21.3718C17.4392 22.0045 16.3404 22.4685 15.1632 22.7224C14.3813 22.8911 13.7253 22.2615 13.7253 21.5236V20.9072C13.7253 20.2773 14.1828 19.7823 14.7426 19.6398ZM18.8966 16.5302C19.2265 15.9774 19.4801 15.3745 19.6425 14.7356C19.7849 14.1754 20.2794 13.7177 20.9086 13.7176L21.5246 13.7176C22.2619 13.7175 22.891 14.3741 22.7225 15.1567C22.4688 16.3349 22.0052 17.4345 21.373 18.4149C20.9393 19.0876 20.0304 19.1072 19.5088 18.5852L19.0713 18.1473C18.6262 17.7018 18.5998 17.0273 18.8966 16.5302ZM19.6424 11.3971C19.48 10.7581 19.2265 10.1552 18.8965 9.60239C18.5997 9.10522 18.6261 8.43075 19.0712 7.98521L19.5087 7.54742C20.0303 7.02534 20.9392 7.04495 21.3729 7.71768C22.0051 8.6982 22.4687 9.79795 22.7224 10.9762C22.8909 11.7587 22.2619 12.4153 21.5246 12.4153H20.9088C20.2794 12.4153 19.7848 11.9574 19.6424 11.3971ZM16.5953 7.12783C16.0341 6.78262 15.4325 6.52682 14.811 6.36029C14.252 6.21053 13.8015 5.70821 13.8108 5.07819L13.8199 4.45911C13.8308 3.72086 14.4965 3.10124 15.2759 3.28153C16.4119 3.54429 17.51 4.01006 18.512 4.67849C19.1776 5.12246 19.1833 6.03207 18.6544 6.54609L18.2125 6.97548C17.761 7.41426 17.0874 7.43055 16.5953 7.12783ZM9.6568 18.7965C10.2151 19.1463 10.8146 19.4071 11.4347 19.5787C11.9924 19.7331 12.4387 20.2392 12.4243 20.8691L12.41 21.4881C12.393 22.2262 11.7222 22.8403 10.9443 22.6535C9.81054 22.3814 8.71635 21.9065 7.71984 21.2298C7.05797 20.7804 7.05979 19.8707 7.59297 19.3611L8.03837 18.9354C8.49352 18.5004 9.16718 18.4897 9.6568 18.7965ZM14.2595 5.08478C14.2537 5.48409 14.5416 5.82307 14.927 5.92634C15.5896 6.10386 16.2313 6.37669 16.8303 6.7451C17.17 6.9541 17.6137 6.93121 17.8998 6.65316L18.3417 6.22377C18.6882 5.88702 18.6651 5.32035 18.2631 5.05225C17.307 4.41449 16.2592 3.96998 15.1749 3.71916C14.704 3.61024 14.2758 3.98208 14.2687 4.4657L14.2595 5.08478ZM16.7656 19.2788C17.1081 19.0739 17.5517 19.1033 17.8338 19.3857L18.2714 19.8236C18.6132 20.1656 18.5814 20.7321 18.1754 20.9943C17.2403 21.5982 16.1918 22.041 15.0686 22.2832C14.5965 22.3851 14.1741 22.007 14.1741 21.5236V20.9071C14.1741 20.508 14.4667 20.1735 14.8532 20.0751C15.5343 19.9016 16.1769 19.6309 16.7656 19.2788ZM20.9086 14.1668C20.5099 14.1668 20.1757 14.4596 20.0774 14.8464C19.9041 15.5281 19.6336 16.1712 19.2818 16.7605C19.0772 17.1034 19.1066 17.5473 19.3887 17.8297L19.8261 18.2675C20.1678 18.6095 20.7339 18.5777 20.9959 18.1713C21.5993 17.2354 22.0417 16.1862 22.2838 15.062C22.3855 14.5894 22.0077 14.1667 21.5247 14.1667L20.9086 14.1668ZM19.2817 9.37196C19.0771 9.02914 19.1065 8.5852 19.3886 8.30281L19.826 7.86501C20.1677 7.52301 20.7338 7.55478 20.9958 7.96119C21.5992 8.89718 22.0416 9.94662 22.2836 11.0708C22.3854 11.5433 22.0076 11.9661 21.5246 11.9661H20.9087C20.5099 11.9661 20.1757 11.6732 20.0774 11.2863C19.9041 10.6044 19.6335 9.96125 19.2817 9.37196ZM11.3151 20.0116C11.6996 20.1181 11.9847 20.4595 11.9755 20.8587L11.9613 21.4777C11.9502 21.9612 11.5189 22.3295 11.049 22.2167C9.9667 21.9569 8.9226 21.5037 7.97183 20.8581C7.57213 20.5867 7.55362 20.0198 7.90294 19.686L8.34834 19.2602C8.63675 18.9846 9.0806 18.9654 9.41863 19.1772C10.0145 19.5505 10.654 19.8286 11.3151 20.0116Z" fill="#73A2F5"/>
<path opacity="0.15" fill-rule="evenodd" clip-rule="evenodd" d="M11.2575 6.47741C10.6193 6.63993 10.0169 6.89372 9.46466 7.22399C8.96794 7.52104 8.29408 7.49462 7.84891 7.04913L7.41132 6.61122C6.88966 6.08918 6.90918 5.17949 7.58134 4.74539C8.56093 4.11273 9.65971 3.64871 10.8369 3.39479C11.6188 3.22613 12.2748 3.85569 12.2748 4.59357V5.21001C12.2748 5.83988 11.8173 6.33487 11.2575 6.47741ZM7.10354 9.58701C6.77357 10.1398 6.52003 10.7427 6.35761 11.3816C6.21519 11.9418 5.72069 12.3995 5.09147 12.3996L4.47544 12.3996C3.73816 12.3997 3.10906 11.7431 3.27757 10.9605C3.53127 9.78228 3.99493 8.68269 4.62706 7.70226C5.06079 7.02956 5.96967 7.00995 6.4913 7.53203L6.92874 7.96984C7.3739 8.41538 7.40032 9.08984 7.10354 9.58701ZM6.35766 14.7201C6.52004 15.3591 6.77362 15.962 7.10362 16.5148C7.40042 17.012 7.374 17.6864 6.92884 18.132L6.49142 18.5698C5.96978 19.0919 5.06087 19.0722 4.62717 18.3995C3.99503 17.419 3.5314 16.3192 3.27769 15.141C3.10918 14.3585 3.73819 13.7019 4.47545 13.7019H5.09133C5.72069 13.7019 6.21527 14.1598 6.35766 14.7201Z" fill="#797A7B"/>
</svg>
