<svg width="32" height="32" viewBox="0 0 32 32" fill="none" xmlns="http://www.w3.org/2000/svg">
<path d="M29.335 16C29.335 9.30908 24.0242 4 17.335 4C10.6451 4 5.335 9.30908 5.335 16C5.335 22.6909 10.6451 28 17.335 28C24.0242 28 29.335 22.6909 29.335 16Z" fill="#FF060A"/>
<path d="M17.25 13.6152C16.6875 13.0958 15.9094 12.3027 15.2756 11.7402L15.2381 11.7139C15.1757 11.6638 15.1054 11.6245 15.03 11.5977C13.5019 11.3127 6.39 9.98328 6.25125 10.0002C6.21237 10.0056 6.17521 10.0197 6.1425 10.0414L6.10688 10.0695C6.06301 10.1141 6.02969 10.1679 6.00938 10.227L6 10.2514V10.3845V10.4052C6.80063 12.6345 9.96188 19.9377 10.5844 21.6514C10.6219 21.7677 10.6931 21.9889 10.8263 22.0002H10.8563C10.9275 22.0002 11.2313 21.5989 11.2313 21.5989C11.2313 21.5989 16.6613 15.0139 17.2106 14.3127C17.2817 14.2263 17.3445 14.1334 17.3981 14.0352C17.4118 13.9583 17.4054 13.8792 17.3794 13.8056C17.3534 13.732 17.3089 13.6664 17.25 13.6152ZM12.6244 14.382L14.9419 12.4602L16.3013 13.7127L12.6244 14.382ZM11.7244 14.2564L7.73438 10.9864L14.19 12.177L11.7244 14.2564ZM12.0844 15.1133L16.1681 14.4552L11.4994 20.0802L12.0844 15.1133ZM7.1925 11.3127L11.3906 14.8752L10.7831 20.0839L7.1925 11.3127Z" fill="white"/>
</svg>
