<svg width="14" height="14" viewBox="0 0 14 14" fill="none" xmlns="http://www.w3.org/2000/svg">
<path fill-rule="evenodd" clip-rule="evenodd" d="M9.73876 4.63672C9.84081 4.63698 9.93853 4.67795 10.0103 4.75054L10.276 5.01944C10.424 5.16921 10.4234 5.41033 10.2746 5.55934L6.35153 9.59306C6.27966 9.66505 6.1821 9.7055 6.08037 9.70549C5.97864 9.70548 5.8811 9.665 5.80924 9.59299L3.72713 7.50625C3.57807 7.35685 3.57791 7.11504 3.72678 6.96546L3.9925 6.69845C4.0643 6.6263 4.16186 6.58569 4.26364 6.58559C4.36543 6.58549 4.46307 6.6259 4.53502 6.6979L6.08032 8.24443L9.46669 4.74913C9.53879 4.67692 9.63672 4.63646 9.73876 4.63672Z" fill="#2F9752"/>
</svg>
