<svg width="22" height="22" viewBox="0 0 22 22" fill="none" xmlns="http://www.w3.org/2000/svg">
<path d="M6.70139 17.1174C6.7096 17.2091 6.78642 17.2797 6.87847 17.2797H14.4531C14.5452 17.2797 14.622 17.2091 14.6302 17.1174L15.4499 7.74282C15.4812 7.38501 15.7808 7.11046 16.14 7.11046C16.5435 7.11046 16.8616 7.45397 16.8306 7.85629L16.0623 17.8453C16.0266 18.3084 15.6405 18.666 15.176 18.666H6.1556C5.69113 18.666 5.30496 18.3084 5.26933 17.8453L4.50095 7.85629C4.47 7.45397 4.7881 7.11046 5.19161 7.11046C5.55079 7.11046 5.85039 7.38501 5.88168 7.74282L6.70139 17.1174Z" fill="#DD483C"/>
<path d="M9.73273 14.848C9.75667 15.2311 9.45246 15.5549 9.06866 15.5549C8.7173 15.5549 8.4265 15.2817 8.40459 14.931L8.04331 9.15067C8.01937 8.76762 8.32359 8.44379 8.70738 8.44379C9.05874 8.44379 9.34954 8.71699 9.37146 9.06766L9.73273 14.848Z" fill="#DD483C"/>
<path d="M12.927 14.931C12.9051 15.2817 12.6143 15.5549 12.2629 15.5549C11.8791 15.5549 11.5749 15.2311 11.5989 14.848L11.9601 9.06766C11.9821 8.71699 12.2729 8.44379 12.6242 8.44379C13.008 8.44379 13.3122 8.76761 13.2883 9.15067L12.927 14.931Z" fill="#DD483C"/>
<path d="M17.1102 4.44379C17.4784 4.44379 17.7769 4.74227 17.7769 5.11046C17.7769 5.47865 17.4784 5.77713 17.1102 5.77713L4.22135 5.77713C3.85316 5.77713 3.55469 5.47865 3.55469 5.11046C3.55469 4.74227 3.85316 4.44379 4.22135 4.44379L17.1102 4.44379Z" fill="#DD483C"/>
<path d="M12.2214 2.66602C12.5895 2.66602 12.888 2.96449 12.888 3.33268C12.888 3.70087 12.5895 3.99935 12.2214 3.99935L9.11024 3.99935C8.74205 3.99935 8.44358 3.70087 8.44358 3.33268C8.44358 2.96449 8.74205 2.66602 9.11024 2.66602L12.2214 2.66602Z" fill="#DD483C"/>
</svg>
