<svg width="22" height="22" viewBox="0 0 22 22" fill="none" xmlns="http://www.w3.org/2000/svg">
<path fill-rule="evenodd" clip-rule="evenodd" d="M13.3939 3.55554L17.7769 7.93851L7.93765 17.7777L3.55881 17.7736L3.55469 13.3947L13.3939 3.55554ZM4.90757 13.9544L4.9099 16.4225L7.37801 16.4248L15.8643 7.93851L13.3939 5.46807L4.90757 13.9544Z" fill="#2D2F2F"/>
<path fill-rule="evenodd" clip-rule="evenodd" d="M13.3939 3.55554L17.7769 7.93851L7.93765 17.7777L3.55881 17.7736L3.55469 13.3947L13.3939 3.55554ZM4.90757 13.9544L4.9099 16.4225L7.37801 16.4248L15.8643 7.93851L13.3939 5.46807L4.90757 13.9544Z" fill="#2D2F2F"/>
<path fill-rule="evenodd" clip-rule="evenodd" d="M13.8994 11.0642L10.2509 7.41564L11.2072 6.45938L14.8557 10.1079L13.8994 11.0642Z" fill="#2D2F2F"/>
</svg>
