<svg width="26" height="26" viewBox="0 0 26 26" fill="none" xmlns="http://www.w3.org/2000/svg">
<path d="M6.49961 9.20703H20.5829C20.8821 9.20703 21.1246 9.44954 21.1246 9.7487V19.4987C21.1246 19.7979 20.8821 20.0404 20.5829 20.0404H18.7223C18.1634 20.0404 17.6107 20.1575 17.0998 20.3842L14.2129 21.6654H20.5829C21.7796 21.6654 22.7496 20.6953 22.7496 19.4987V9.7487C22.7496 8.55208 21.7796 7.58203 20.5829 7.58203H6.49961C5.303 7.58203 4.33295 8.55208 4.33295 9.7487V11.0416L5.95795 10.1304V9.7487C5.95795 9.44954 6.20046 9.20703 6.49961 9.20703Z" fill="#73A2F5"/>
<path d="M6.49961 5.95703H17.3329C17.6321 5.95703 17.8746 6.19954 17.8746 6.4987H19.4996C19.4996 5.30208 18.5296 4.33203 17.3329 4.33203H6.49961C5.303 4.33203 4.33295 5.30208 4.33295 6.4987V9.7487L5.95795 9.45324V6.4987C5.95795 6.19954 6.20046 5.95703 6.49961 5.95703Z" fill="#73A2F5"/>
<path d="M19.4996 14.6237C19.4996 15.222 19.0146 15.707 18.4163 15.707C17.818 15.707 17.3329 15.222 17.3329 14.6237C17.3329 14.0254 17.818 13.5404 18.4163 13.5404C19.0146 13.5404 19.4996 14.0254 19.4996 14.6237Z" fill="#73A2F5"/>
<path d="M14.7533 20.1436L9.80392 22.5716C9.23924 22.8486 8.57714 22.8438 8.0165 22.5587L2.92188 19.968V14.5931L8.41017 17.3213C8.71669 17.4737 9.07719 17.4722 9.38246 17.3174L14.7533 14.5931V20.1436ZM9.55772 18.7862L9.40581 18.8541C9.09656 18.9711 8.75506 18.9748 8.44375 18.866L8.29184 18.8024L4.30087 16.8027V19.1169L8.01879 21.0144C8.5781 21.2999 9.239 21.3061 9.80356 21.0312L13.3743 19.2925V16.8695L9.55772 18.7862ZM14.2129 13.3639L9.3662 15.907C9.0588 16.0683 8.69271 16.0725 8.38168 15.9183L3.40717 13.4522L8.44874 10.9215C8.731 10.7799 9.0636 10.7798 9.34588 10.9215L14.2129 13.3639ZM6.51314 13.4361L8.87683 14.5931L11.1866 13.3876L8.8973 12.2391L6.51314 13.4361Z" fill="#73A2F5"/>
</svg>
