<svg width="38" height="38" viewBox="0 0 38 38" fill="none" xmlns="http://www.w3.org/2000/svg">
<path d="M22.3594 4.98047C22.6702 4.98047 22.9682 5.10402 23.1879 5.32379L30.2192 12.355C30.4389 12.5748 30.5625 12.8728 30.5625 13.1836V31.4453C30.5625 32.0925 30.0378 32.6172 29.3906 32.6172H8.6875C8.04029 32.6172 7.51562 32.0925 7.51562 31.4453V6.15234C7.51562 5.50514 8.04029 4.98047 8.6875 4.98047H22.3594ZM9.85938 30.2734H28.2188V13.6688L21.8741 7.32422H9.85938V30.2734Z" fill="#797A7B"/>
<path d="M18.299 13.0707C18.7593 12.6952 19.4386 12.7225 19.8676 13.1516L24.8206 18.1046L23.1635 19.7617L20.211 16.8091V25.0153H17.8672V16.8091L14.9146 19.7617L13.2575 18.1046L18.2105 13.1516L18.299 13.0707Z" fill="#797A7B"/>
</svg>
