<svg width="16" height="16" viewBox="0 0 16 16" fill="none" xmlns="http://www.w3.org/2000/svg">
<path d="M3.19922 8.0002C3.19922 5.34923 5.34825 3.2002 7.99922 3.2002C10.6502 3.2002 12.7992 5.34923 12.7992 8.00019C12.7992 10.6512 10.6502 12.8002 7.99922 12.8002C5.34825 12.8002 3.19922 10.6512 3.19922 8.0002Z" fill="white"/>
<path fill-rule="evenodd" clip-rule="evenodd" d="M7.9987 1.33301C4.3168 1.33301 1.33203 4.31778 1.33203 7.99967C1.33203 11.6816 4.3168 14.6663 7.9987 14.6663C11.6806 14.6663 14.6654 11.6816 14.6654 7.99967C14.6654 4.31778 11.6806 1.33301 7.9987 1.33301ZM7.99989 12.0403C7.45042 12.0403 7.00499 11.5948 7.00499 11.0454V7.63671C7.00499 7.08724 7.45042 6.6418 7.99989 6.6418C8.54936 6.6418 8.99479 7.08724 8.99479 7.63671V11.0454C8.99479 11.5948 8.54936 12.0403 7.99989 12.0403ZM7.09618 4.86557C7.09618 4.36349 7.50319 3.95647 8.00527 3.95647C8.50735 3.95647 8.91436 4.36349 8.91436 4.86557C8.91436 5.36764 8.50735 5.77466 8.00527 5.77466C7.50319 5.77466 7.09618 5.36764 7.09618 4.86557Z" fill="#73A2F5"/>
</svg>
