<svg width="46" height="46" viewBox="0 0 46 46" fill="none" xmlns="http://www.w3.org/2000/svg">
<path d="M39.5936 32.5859C38.4879 34.496 37.0643 36.1974 35.3915 37.6171H10.6059C8.93313 36.1974 7.5095 34.496 6.40381 32.5859H39.5936Z" fill="white"/>
<path d="M42.1654 23.0007C42.1654 24.5695 41.9725 26.0933 41.6169 27.5527H4.38045C4.02487 26.0933 3.83203 24.5695 3.83203 23.0007C3.83203 22.8404 3.83935 22.6808 3.84326 22.5215H42.1541C42.158 22.6808 42.1654 22.8404 42.1654 23.0007Z" fill="white"/>
<path d="M39.0021 12.4571C40.0173 13.9948 40.8178 15.6858 41.3586 17.4902H4.63875C5.17955 15.6858 5.98014 13.9948 6.99528 12.4571H39.0021Z" fill="white"/>
<path d="M22.9987 3.83398C27.1656 3.83398 31.0191 5.16764 34.1637 7.42586H11.8337C14.9783 5.16764 18.8318 3.83398 22.9987 3.83398Z" fill="white"/>
<path d="M35.392 37.617C32.0501 40.4533 27.7258 42.1672 22.9992 42.1672C18.2726 42.1672 13.9482 40.4533 10.6064 37.617H35.392Z" fill="#D80027"/>
<path d="M41.6174 27.5527C41.1813 29.3426 40.4933 31.0322 39.5941 32.5858H6.4043C5.50504 31.0322 4.81705 29.3426 4.38094 27.5527H41.6174Z" fill="#D80027"/>
<path d="M41.3591 17.4902C41.8385 19.0896 42.1118 20.7762 42.1546 22.5214H3.84375C3.88658 20.7762 4.15988 19.0896 4.63924 17.4902H41.3591Z" fill="#D80027"/>
<path d="M34.1641 7.42578C36.0677 8.79279 37.7097 10.4985 39.0026 12.457H6.99577C8.28871 10.4985 9.93066 8.79279 11.8342 7.42578H34.1641Z" fill="#D80027"/>
<path d="M22.5312 22.52H3.84375C4.0943 12.3116 12.3214 4.08845 22.5312 3.84375V22.52Z" fill="white"/>
<path fill-rule="evenodd" clip-rule="evenodd" d="M22.5312 22.52H3.84375C3.89041 20.6188 4.21461 18.7868 4.77588 17.062L5.88957 16.2422L7.1193 17.1481L6.63265 15.6956L7.80249 14.8365H6.3444L6.07113 14.0186C8.37055 9.69189 12.277 6.35119 16.9984 4.79647L17.5786 5.22323L17.0938 6.67757L18.3236 5.77165L19.5533 6.67757L19.0667 5.22323L20.2365 4.3641H18.7784L18.7597 4.30981C19.977 4.03502 21.2381 3.87474 22.5312 3.84375V22.52ZM9.67049 18.3722H8.2124L9.38037 19.2314L8.89559 20.6838L10.1253 19.7779L11.3551 20.6838L10.8684 19.2314L12.0382 18.3722H10.5802L10.1253 17.0133L9.67049 18.3722ZM17.8687 18.3722H16.4106L17.5786 19.2314L17.0938 20.6838L18.3236 19.7779L19.5533 20.6838L19.0667 19.2314L20.2365 18.3722H18.7784L18.3236 17.0133L17.8687 18.3722ZM13.7696 14.8365H12.3115L13.4795 15.6956L12.9947 17.1481L14.2244 16.2422L15.4542 17.1481L14.9675 15.6956L16.1374 14.8365H14.6793L14.2244 13.4757L13.7696 14.8365ZM9.67049 11.3008H8.2124L9.38037 12.1599L8.89559 13.6124L10.1253 12.7065L11.3551 13.6124L10.8684 12.1599L12.0382 11.3008H10.5802L10.1253 9.94002L9.67049 11.3008ZM17.8687 11.3008H16.4106L17.5786 12.1599L17.0938 13.6124L18.3236 12.7065L19.5533 13.6124L19.0667 12.1599L20.2365 11.3008H18.7784L18.3236 9.94002L17.8687 11.3008ZM13.7696 7.90169H12.3115L13.4795 8.76082L12.9947 10.2133L14.2244 9.30737L15.4542 10.2133L14.9675 8.76082L16.1374 7.90169H14.6793L14.2244 6.54093L13.7696 7.90169Z" fill="#0052B4"/>
</svg>
