<svg width="32" height="32" viewBox="0 0 32 32" fill="none" xmlns="http://www.w3.org/2000/svg">
  <path d="M16 28C22.6274 28 28 22.6274 28 16C28 9.37258 22.6274 4 16 4C9.37258 4 4 9.37258 4 16C4 22.6274 9.37258 28 16 28Z" fill="#FF060A"/>
  <g transform="translate(4.301 0)">
    <path d="M17.25 13.6152C16.6875 13.0958 15.9094 12.3027 15.2756 11.7402L15.2381 11.7139C15.1757 11.6638 15.1054 11.6245 15.03 11.5977C13.5019 11.3127 6.39 9.98328 6.25125 10.0002C6.21237 10.0056 6.17521 10.0197 6.1425 10.0414L6.10688 10.0695C6.06301 10.1141 6.02969 10.1679 6.00938 10.227L6 10.2514V10.3845V10.4052C6.80063 12.6345 9.96188 19.9377 10.5844 21.6514C10.6219 21.7677 10.6931 21.9889 10.8263 22.0002H10.8563C10.9275 22.0002 11.2313 21.5989 11.2313 21.5989C11.2313 21.5989 16.6613 15.0139 17.2106 14.3127C17.2817 14.2263 17.3445 14.1334 17.3981 14.0352C17.4118 13.9583 17.4054 13.8792 17.3794 13.8056C17.3534 13.732 17.3089 13.6664 17.25 13.6152ZM12.6244 14.382L14.9419 12.4602L16.3013 13.7127L12.6244 14.382ZM11.7244 14.2564L7.73438 10.9864L14.19 12.177L11.7244 14.2564ZM12.0844 15.1133L16.1681 14.4552L11.4994 20.0802L12.0844 15.1133ZM7.1925 11.3127L11.3906 14.8752L10.7831 20.0839L7.1925 11.3127Z" fill="white"/>
  </g>
</svg>
