<svg width="26" height="26" viewBox="0 0 26 26" fill="none" xmlns="http://www.w3.org/2000/svg">
<path d="M5.42228 18.5278C5.47417 19.0374 5.87961 19.4428 6.38924 19.4947L6.50033 19.5H19.5003C20.0611 19.5 20.5228 19.0739 20.5784 18.5278L20.5837 18.4167V7.58333C20.5837 6.98502 20.0986 6.5 19.5003 6.5V4.875C20.9961 4.875 22.2087 6.08756 22.2087 7.58333V18.4167C22.2087 19.9124 20.9961 21.125 19.5003 21.125H6.50033C5.00455 21.125 3.79199 19.9124 3.79199 18.4167V7.58333C3.79199 6.08756 5.00455 4.875 6.50033 4.875V6.5L6.38924 6.50529C5.8431 6.5609 5.41699 7.02252 5.41699 7.58333V18.4167L5.42228 18.5278ZM19.5003 4.875V6.5H6.50033V4.875H19.5003Z" fill="#73A2F5"/>
<path d="M17.9994 9.75003C18.3841 9.51941 18.8837 9.64465 19.1145 10.0293C19.3451 10.4141 19.2199 10.9136 18.8352 11.1444L13.4185 14.3944C13.1614 14.5485 12.8399 14.5485 12.5827 14.3944L7.16606 11.1444C6.78138 10.9136 6.65615 10.4141 6.88677 10.0293C7.11758 9.64465 7.6171 9.51941 8.00184 9.75003L13.0006 12.7493L17.9994 9.75003Z" fill="#73A2F5"/>
</svg>
