<svg width="20" height="20" viewBox="0 0 20 20" fill="none" xmlns="http://www.w3.org/2000/svg">
<path d="M17.5 16.1221C17.8107 16.1221 18.0625 16.3739 18.0625 16.6846C18.0625 16.9952 17.8107 17.2471 17.5 17.2471H2.5C2.18934 17.2471 1.9375 16.9952 1.9375 16.6846C1.9375 16.3739 2.18934 16.1221 2.5 16.1221H17.5Z" fill="#336AFF"/>
<path d="M16.3872 16.5908H15.2622L15.2622 3.87891L8.95679 3.87891L8.95679 16.6831H7.83179L7.83179 3.69141C7.83179 3.17364 8.25153 2.75391 8.76929 2.75391L15.4497 2.75391C15.9674 2.75404 16.3872 3.17372 16.3872 3.69141V16.5908Z" fill="#336AFF"/>
<path d="M3.61304 9.18677C3.61326 8.60959 4.23813 8.24922 4.73804 8.53784L8.39649 10.6494L7.83399 11.6243L4.73804 9.83643V16.6809H3.61304L3.61304 9.18677Z" fill="#336AFF"/>
<path d="M13.5747 5.71216L13.5732 6.83716L10.6758 6.83496L10.6772 5.70996L13.5747 5.71216Z" fill="#336AFF"/>
<path d="M13.5747 8.71216L13.5732 9.83716L10.6758 9.83496L10.6772 8.70996L13.5747 8.71216Z" fill="#336AFF"/>
<path d="M13.5747 11.7122L13.5732 12.8372L10.6758 12.835L10.6772 11.71L13.5747 11.7122Z" fill="#336AFF"/>
</svg>
