<svg width="26" height="26" viewBox="0 0 26 26" fill="none" xmlns="http://www.w3.org/2000/svg">
<path d="M17.5872 22.1752V23.8002H8.41276V22.1752H17.5872ZM19.7539 20.0085V10.666H6.24609V20.0085C6.24619 21.2051 7.2162 22.1752 8.41276 22.1752V23.8002L8.2181 23.7949C6.27903 23.6968 4.72454 22.1422 4.62638 20.2032L4.62109 20.0085V9.04099H21.3789V20.0085L21.3736 20.2032C21.2755 22.1422 19.721 23.6968 17.7819 23.7949L17.5872 23.8002V22.1752C18.7838 22.1752 19.7538 21.2051 19.7539 20.0085Z" fill="#BCBDBD"/>
<path d="M16.2971 7.11686C16.2968 5.29618 14.8203 3.82031 12.9995 3.82031C11.179 3.82059 9.70324 5.29635 9.70296 7.11686V9.80298H8.07796V7.11686C8.07824 4.39889 10.2815 2.19559 12.9995 2.19531C15.7177 2.19531 17.9218 4.39872 17.9221 7.11686V9.80298H16.2971V7.11686Z" fill="#BCBDBD"/>
<path d="M13.8125 15.697V18.9152H12.1875V15.697H13.8125Z" fill="#BCBDBD"/>
<path d="M14.6685 15.5941C14.6685 16.5156 13.9215 17.2626 13 17.2626C12.0785 17.2626 11.3315 16.5156 11.3315 15.5941C11.3315 14.6726 12.0785 13.9256 13 13.9256C13.9215 13.9256 14.6685 14.6726 14.6685 15.5941Z" fill="#BCBDBD"/>
</svg>
