<svg width="20" height="20" viewBox="0 0 20 20" fill="none" xmlns="http://www.w3.org/2000/svg">
<path d="M4.58153 16.6673C3.87866 16.6671 3.39565 16.2274 3.33797 15.5539L3.33203 15.4165V14.5823C3.33203 12.502 6.58666 10.8281 9.99827 10.828C13.41 10.828 16.6654 12.502 16.6654 14.5823L16.6645 15.4165L16.6594 15.5539C16.6056 16.1827 16.1805 16.6076 15.5523 16.6614L15.415 16.6673H4.58153ZM11.8785 6.46195C11.8783 5.4763 11.0585 4.63745 9.99827 4.63745C8.93816 4.63755 8.11913 5.47637 8.11894 6.46195C8.11894 7.44769 8.93804 8.2872 9.99827 8.28731C11.0586 8.28731 11.8785 7.44775 11.8785 6.46195ZM4.63408 15.3639L15.3625 15.3639L15.3633 14.5823L15.3599 14.5195C15.3252 14.1903 15.0139 13.6303 13.9867 13.0684C12.9587 12.506 11.5107 12.1315 9.99827 12.1315C8.48583 12.1315 7.03781 12.506 6.00989 13.0684C4.91474 13.6675 4.63408 14.265 4.63408 14.5823V15.3639ZM13.1763 6.62319C13.0911 8.27614 11.7006 9.59077 9.99827 9.59077C8.29603 9.59067 6.9063 8.27606 6.82113 6.62319L6.81689 6.46195C6.81708 4.73446 8.24126 3.33409 9.99827 3.33398C11.7554 3.33398 13.1803 4.73439 13.1805 6.46195L13.1763 6.62319Z" fill="#336AFF"/>
</svg>
