<svg width="40" height="40" viewBox="0 0 40 40" fill="none" xmlns="http://www.w3.org/2000/svg">
<g clip-path="url(#clip0_6655_29595)">
<path d="M10.1723 11.25C10.0469 11.25 9.98408 11.394 10.0728 11.4781L18.9783 19.9315C19.067 20.0157 19.2186 19.9561 19.2186 19.837V11.3836C19.2186 11.3098 19.1556 11.25 19.0778 11.25H10.1723Z" fill="white"/>
<path d="M20.5314 15.8285C20.5314 18.3571 22.588 20.407 25.1251 20.407C27.6621 20.407 29.7188 18.3571 29.7188 15.8285C29.7188 13.2999 27.6621 11.25 25.1251 11.25C22.588 11.25 20.5314 13.2999 20.5314 15.8285Z" fill="white"/>
<path d="M10.0313 25.4215C10.0313 27.9501 12.0879 30 14.6249 30C17.162 30 19.2186 27.9501 19.2186 25.4215C19.2186 22.8929 17.162 20.843 14.6249 20.843C12.0879 20.843 10.0313 22.8929 10.0313 25.4215Z" fill="white"/>
<path d="M29.6772 29.7719C29.7659 29.856 29.7031 30 29.5777 30H20.6722C20.5944 30 20.5314 29.9402 20.5314 29.8664V21.413C20.5314 21.2939 20.683 21.2343 20.7717 21.3185L29.6772 29.7719Z" fill="white"/>
</g>
<defs>
<clipPath id="clip0_6655_29595">
<rect width="40" height="40" rx="20" fill="white"/>
</clipPath>
</defs>
</svg>
