<svg width="46" height="46" viewBox="0 0 46 46" fill="none" xmlns="http://www.w3.org/2000/svg">
<path d="M22.9987 42.1654C33.6203 42.1654 42.1654 33.6203 42.1654 22.9987C42.1654 12.3771 33.6203 3.83203 22.9987 3.83203C12.3771 3.83203 3.83203 12.3771 3.83203 22.9987C3.83203 33.6203 12.3771 42.1654 22.9987 42.1654Z" fill="#2775CA"/>
<path d="M28.2715 26.0365C28.2715 23.2414 26.5945 22.2831 23.2403 21.8838C20.8445 21.5643 20.3654 20.9255 20.3654 19.8073C20.3654 18.6891 21.164 17.9706 22.7612 17.9706C24.1987 17.9706 24.9973 18.4497 25.3966 19.6476C25.4765 19.8872 25.7161 20.0469 25.9557 20.0469H27.2333C27.5528 20.0469 27.7924 19.8073 27.7924 19.488V19.4081C27.4729 17.651 26.0354 16.2935 24.1987 16.1338V14.2171C24.1987 13.8976 23.9591 13.6581 23.5598 13.5781L22.3619 13.5781C22.0424 13.5781 21.8028 13.8177 21.7229 14.2171V16.0539C19.3271 16.3734 17.8099 17.9706 17.8099 19.9671C17.8099 22.6026 19.407 23.6406 22.7612 24.0401C24.9973 24.4393 25.7161 24.9185 25.7161 26.1963C25.7161 27.4742 24.5979 28.3526 23.0807 28.3526C21.0042 28.3526 20.2854 27.474 20.0459 26.276C19.9661 25.9567 19.7265 25.7969 19.487 25.7969H18.1292C17.8099 25.7969 17.5703 26.0365 17.5703 26.356V26.4359C17.8896 28.4323 19.1675 29.8698 21.8028 30.2692V32.1859C21.8028 32.5052 22.0424 32.7448 22.4417 32.8247H23.6396C23.9591 32.8247 24.1987 32.5851 24.2786 32.1859V30.2692C26.6744 29.8698 28.2715 28.1927 28.2715 26.0365V26.0365Z" fill="white"/>
<path d="M18.927 34.4183C12.6978 32.1823 9.50334 25.2344 11.8194 19.0849C13.0174 15.7308 15.6528 13.1753 18.927 11.9774C19.2465 11.8177 19.4062 11.5781 19.4062 11.1787V10.0607C19.4062 9.74119 19.2465 9.50161 18.927 9.42188C18.8471 9.42188 18.6874 9.42187 18.6075 9.50161C11.0208 11.8974 6.86792 19.9635 9.26375 27.5503C10.7013 32.0224 14.1353 35.4565 18.6075 36.894C18.927 37.0537 19.2465 36.894 19.3263 36.5745C19.4062 36.4948 19.4062 36.4149 19.4062 36.2552V35.137C19.4062 34.8974 19.1666 34.5781 18.927 34.4183ZM27.3924 9.50161C27.0728 9.34195 26.7533 9.50161 26.6736 9.82112C26.5937 9.90104 26.5937 9.98078 26.5937 10.1406V11.2586C26.5937 11.5781 26.8333 11.8974 27.0728 12.0573C33.302 14.2933 36.4965 21.2412 34.1804 27.3906C32.9825 30.7448 30.3471 33.3003 27.0728 34.4982C26.7533 34.6579 26.5937 34.8974 26.5937 35.2969V36.4149C26.5937 36.7344 26.7533 36.974 27.0728 37.0537C27.1528 37.0537 27.3124 37.0537 27.3924 36.974C34.9791 34.5781 39.1319 26.512 36.7361 18.9253C35.2986 14.3732 31.7846 10.9391 27.3924 9.50161V9.50161Z" fill="white"/>
</svg>
