<svg width="40" height="40" viewBox="0 0 40 40" fill="none" xmlns="http://www.w3.org/2000/svg">
<g clip-path="url(#clip0_6655_29596)">
<path d="M18.728 12.7443C18.302 13.1413 17.8834 13.5309 17.4648 13.9187C15.5204 15.7235 13.576 17.5301 11.6298 19.3313C11.1837 19.7448 10.721 20.1418 10.161 20.3844C9.4945 20.6729 9.11259 20.4928 8.89778 19.7742C8.5985 18.7689 8.75824 17.8315 9.33659 16.9677C9.82866 16.2326 10.4492 15.6206 11.0864 15.0251C12.1017 14.0768 13.1244 13.1376 14.1599 12.215C14.6134 11.8106 15.1092 11.4412 15.715 11.3181C17.5291 10.9524 18.6858 12.691 18.7299 12.7424L18.728 12.7443Z" fill="#5278F7"/>
<path d="M10 21.9232C11.1035 21.6053 11.9315 20.905 12.7376 20.1681C15.308 17.8229 17.8748 15.4759 20.4563 13.1437C21.0256 12.6291 21.6241 12.1365 22.2575 11.7064C23.0636 11.1588 23.9394 11.0797 24.8023 11.6017C25.1144 11.7892 25.421 12.0079 25.6744 12.2688C26.5538 13.1786 27.4223 14.1031 28.2687 15.044C29.1685 16.0438 30.0533 17.0584 30.9145 18.0912C31.21 18.446 31.4524 18.8595 31.6526 19.2785C32.0253 20.0578 31.9298 20.8278 31.4763 21.5538C31.0705 22.2044 30.5271 22.7375 29.9672 23.2428C27.7748 25.2241 25.5825 27.2054 23.3646 29.159C22.7698 29.6845 22.1143 30.1551 21.4386 30.5704C20.1662 31.3553 18.8902 31.2578 17.7298 30.3279C17.0541 29.7875 16.4188 29.1828 15.8387 28.5396C13.9696 26.4683 12.1353 24.3676 10.2883 22.2761C10.1946 22.1714 10.1102 22.0575 10 21.9214V21.9232Z" fill="#5278F7"/>
</g>
<defs>
<clipPath id="clip0_6655_29596">
<rect width="40" height="40" rx="20" fill="white"/>
</clipPath>
</defs>
</svg>
