<svg width="32" height="32" viewBox="0 0 32 32" fill="none" xmlns="http://www.w3.org/2000/svg">
<path d="M18.6667 20.3333C19.219 20.3333 19.6667 20.781 19.6667 21.3333C19.6667 21.8856 19.219 22.3333 18.6667 22.3333H10.6667C10.1144 22.3333 9.66667 21.8856 9.66667 21.3333C9.66667 20.781 10.1144 20.3333 10.6667 20.3333H18.6667Z" fill="#336AFF"/>
<path d="M16.6667 15.6667C17.219 15.6667 17.6667 16.1144 17.6667 16.6667C17.6667 17.219 17.219 17.6667 16.6667 17.6667H10.6667C10.1144 17.6667 9.66667 17.219 9.66667 16.6667C9.66667 16.1144 10.1144 15.6667 10.6667 15.6667H16.6667Z" fill="#336AFF"/>
<path fill-rule="evenodd" clip-rule="evenodd" d="M19.1719 4C19.5404 4 19.8925 4.15302 20.1445 4.42188L25.6393 10.2826C25.8709 10.5296 26 10.8554 26 11.194V26.6667C26 27.403 25.403 28 24.6667 28H7.33333C6.59695 28 6 27.403 6 26.6667V5.33333C6 4.59695 6.59695 4 7.33333 4H19.1719ZM8.66667 6C8.29848 6 8 6.29848 8 6.66667V25.3333C8 25.7015 8.29848 26 8.66667 26H23.3333C23.7015 26 24 25.7015 24 25.3333V13H18.6667C18.1144 13 17.6667 12.5523 17.6667 12V6H8.66667ZM19.6667 11H23.5716L19.6667 6.83464V11Z" fill="#336AFF"/>
</svg>
