<svg width="104" height="57" viewBox="0 0 104 57" fill="none" xmlns="http://www.w3.org/2000/svg">
<path d="M14.1792 15.3925C13.832 15.7161 13.4908 16.0336 13.1496 16.3497C11.5649 17.8206 9.98022 19.2931 8.394 20.7611C8.03037 21.0981 7.65327 21.4216 7.19686 21.6194C6.65366 21.8545 6.3424 21.7077 6.16732 21.1221C5.9234 20.3027 6.05359 19.5388 6.52496 18.8347C6.92601 18.2356 7.43179 17.7368 7.95106 17.2514C8.77858 16.4785 9.61209 15.7131 10.4561 14.9611C10.8257 14.6316 11.2297 14.3305 11.7236 14.2301C13.202 13.932 14.1448 15.3491 14.1807 15.391L14.1792 15.3925Z" fill="#4779FF"/>
<path d="M7.07031 22.8737C7.96966 22.6146 8.64456 22.0439 9.30149 21.4432C11.3965 19.5319 13.4885 17.619 15.5925 15.7182C16.0564 15.2988 16.5442 14.8973 17.0604 14.5468C17.7174 14.1004 18.4312 14.036 19.1345 14.4614C19.3889 14.6142 19.6388 14.7925 19.8453 15.0052C20.5621 15.7467 21.2699 16.5001 21.9597 17.267C22.6931 18.0819 23.4143 18.9088 24.1161 19.7506C24.357 20.0397 24.5546 20.3767 24.7177 20.7182C25.0215 21.3534 24.9437 21.981 24.574 22.5727C24.2433 23.1029 23.8004 23.5374 23.344 23.9492C21.5572 25.5641 19.7705 27.1788 17.9628 28.771C17.478 29.1994 16.9437 29.5829 16.393 29.9214C15.356 30.5611 14.316 30.4817 13.3703 29.7238C12.8196 29.2833 12.3018 28.7905 11.829 28.2663C10.3056 26.5781 8.81065 24.866 7.30525 23.1613C7.22893 23.076 7.16009 22.9831 7.07031 22.8722V22.8737Z" fill="#4779FF"/>
<path d="M38.0625 14.5103H40.3341V26.8261H38.0625V25.7881C37.3936 26.6449 36.4419 27.0718 35.2103 27.0718C33.9788 27.0718 33.0121 26.6224 32.1726 25.7252C31.3331 24.8279 30.9141 23.7285 30.9141 22.4268C30.9141 21.1251 31.3331 20.0256 32.1726 19.1284C33.0121 18.2311 34.0237 17.7817 35.2103 17.7817C36.397 17.7817 37.3936 18.2101 38.0625 19.0655V14.5088V14.5103ZM33.88 24.2138C34.3439 24.6767 34.9275 24.9088 35.6323 24.9088C36.3371 24.9088 36.9178 24.6767 37.3757 24.2138C37.8336 23.7509 38.0625 23.1548 38.0625 22.4283C38.0625 21.7018 37.8336 21.1056 37.3757 20.6428C36.9178 20.1799 36.3371 19.9477 35.6323 19.9477C34.9275 19.9477 34.3439 20.1799 33.88 20.6428C33.4161 21.1056 33.1842 21.7018 33.1842 22.4283C33.1842 23.1548 33.4161 23.7509 33.88 24.2138Z" fill="black"/>
<path d="M47.9202 18.0308H50.3505L47.1407 26.843C46.6828 28.0998 46.0767 29.0121 45.3194 29.5812C44.5638 30.1505 43.6226 30.4066 42.4972 30.3467V28.2361C43.1078 28.248 43.5911 28.1192 43.9503 27.8496C44.3079 27.58 44.5937 27.1456 44.8047 26.5479L41.1953 18.0323H43.6779L45.9734 23.9445L47.9218 18.0323L47.9202 18.0308Z" fill="black"/>
<path d="M56.1229 17.7823C57.085 17.7823 57.8811 18.1043 58.5082 18.7499C59.1367 19.3955 59.4494 20.2868 59.4494 21.4237V26.8252H57.1779V21.7053C57.1779 21.1196 57.0192 20.6702 56.702 20.3587C56.3847 20.0486 55.9628 19.8928 55.4345 19.8928C54.8479 19.8928 54.378 20.0741 54.0264 20.4381C53.6747 20.8021 53.4981 21.3473 53.4981 22.0738V26.8237H51.2266V18.0264H53.4981V19.0121C54.0503 18.1912 54.9242 17.7808 56.1214 17.7808L56.1229 17.7823Z" fill="black"/>
<path d="M67.7188 18.0304H69.9904V26.8277H67.7188V25.7896C67.038 26.6463 66.0817 27.0732 64.8486 27.0732C63.6156 27.0732 62.6684 26.6239 61.8288 25.7266C60.9893 24.8294 60.5703 23.7299 60.5703 22.4282C60.5703 21.1265 60.9893 20.0271 61.8288 19.1298C62.6684 18.2326 63.6739 17.7832 64.8486 17.7832C66.0817 17.7832 67.038 18.2116 67.7188 19.0669V18.0289V18.0304ZM63.5272 24.2153C63.9852 24.6781 64.5658 24.9102 65.2707 24.9102C65.9755 24.9102 66.5591 24.6781 67.0229 24.2153C67.4868 23.7524 67.7188 23.1563 67.7188 22.4298C67.7188 21.7032 67.4868 21.1071 67.0229 20.6442C66.5591 20.1814 65.9755 19.9492 65.2707 19.9492C64.5658 19.9492 63.9852 20.1814 63.5272 20.6442C63.0694 21.1071 62.8404 21.7032 62.8404 22.4298C62.8404 23.1563 63.0694 23.7524 63.5272 24.2153Z" fill="black"/>
<path d="M81.1684 17.7832C82.1785 17.7832 82.9851 18.1112 83.5896 18.7688C84.1942 19.4264 84.4965 20.3057 84.4965 21.4082V26.8277H82.2249V21.5669C82.2249 21.0397 82.0962 20.6292 81.8373 20.3357C81.5784 20.0421 81.2147 19.8953 80.7449 19.8953C80.2287 19.8953 79.8261 20.066 79.5388 20.4061C79.2515 20.7461 79.1079 21.2389 79.1079 21.8845V26.8291H76.8363V21.5684C76.8363 21.0412 76.7076 20.6307 76.4486 20.3371C76.1898 20.0436 75.8262 19.8968 75.3563 19.8968C74.852 19.8968 74.4495 20.0675 74.1502 20.4076C73.8508 20.7476 73.7012 21.2404 73.7012 21.886V26.8307H71.4297V18.0334H73.7012V18.9665C74.2295 18.1801 75.045 17.7877 76.1494 17.7877C77.2538 17.7877 78.0275 18.2101 78.5437 19.0549C79.1303 18.2101 80.0056 17.7877 81.1669 17.7877L81.1684 17.7832Z" fill="black"/>
<path d="M87.0636 16.9729C86.688 16.9729 86.3617 16.8351 86.0864 16.5595C85.8111 16.2839 85.6719 15.9588 85.6719 15.5828C85.6719 15.2069 85.8096 14.8788 86.0864 14.5972C86.3617 14.3156 86.688 14.1748 87.0636 14.1748C87.4389 14.1748 87.7819 14.3156 88.0585 14.5972C88.3344 14.8788 88.4719 15.2069 88.4719 15.5828C88.4719 15.9588 88.3344 16.2839 88.0585 16.5595C87.7835 16.8351 87.4511 16.9729 87.0636 16.9729ZM85.9368 26.8262V18.0289H88.2082V26.8262H85.9368Z" fill="black"/>
<path d="M93.9761 27.0732C92.6485 27.0732 91.5426 26.6284 90.6572 25.7356C89.7714 24.8444 89.3281 23.7419 89.3281 22.4282C89.3281 21.1146 89.7714 20.0121 90.6572 19.1208C91.5426 18.2296 92.6502 17.7832 93.9761 17.7832C94.8339 17.7832 95.6137 17.9884 96.3178 18.3988C97.0228 18.8093 97.557 19.3605 97.9206 20.0526L95.9661 21.1955C95.7895 20.8315 95.5236 20.5439 95.166 20.3327C94.8085 20.1215 94.4058 20.0166 93.9599 20.0166C93.2787 20.0166 92.7147 20.2428 92.2688 20.6937C91.8229 21.146 91.5995 21.7227 91.5995 22.4268C91.5995 23.1308 91.8229 23.691 92.2688 24.1419C92.7147 24.5943 93.2787 24.8189 93.9599 24.8189C94.4177 24.8189 94.8246 24.7171 95.1839 24.5103C95.5415 24.3051 95.809 24.0205 95.9848 23.6566L97.9571 24.7829C97.5698 25.475 97.0228 26.0293 96.3195 26.4457C95.6154 26.8621 94.8356 27.0703 93.9778 27.0703L93.9761 27.0732Z" fill="black"/>
<path d="M61.8779 34.3993C60.0735 34.3993 59.0585 35.5085 59.0585 37.4762C59.0585 39.4439 60.0735 40.5507 61.8779 40.5507C63.2181 40.5507 64.2227 39.9787 64.5399 38.7164C64.5653 38.6143 64.4867 38.5145 64.3836 38.5145H63.5827C63.5075 38.5145 63.4427 38.5656 63.4265 38.6387C63.3582 38.9311 63.07 39.6457 61.8779 39.6457C61.0064 39.6457 60.3837 39.0738 60.2124 38.0586C60.1962 37.96 60.2726 37.8695 60.3721 37.8695H64.5364C64.6255 37.8695 64.6973 37.7975 64.6973 37.7082V37.5319C64.6973 35.5201 63.6823 34.3993 61.8779 34.3993ZM63.3975 37.0341H60.3709C60.2714 37.0341 60.195 36.9448 60.2112 36.8473C60.3721 35.8681 60.9659 35.317 61.8906 35.317C62.8154 35.317 63.3975 35.8681 63.5572 36.8473C63.5734 36.9459 63.497 37.0341 63.3975 37.0341Z" fill="#4779FF"/>
<path d="M58.7044 34.5443H58.0956C57.5424 34.5443 57.032 34.8402 56.7554 35.3205C56.679 35.4551 56.4741 35.3994 56.4741 35.2451V34.6986C56.4741 34.6093 56.4024 34.5374 56.3132 34.5374H55.4278C55.3387 34.5374 55.267 34.6093 55.267 34.6986V40.2537C55.267 40.343 55.3387 40.415 55.4278 40.415H56.3132C56.4024 40.415 56.4741 40.343 56.4741 40.2537V36.794C56.4741 36.1268 57.0135 35.5862 57.6778 35.5862H58.2773C58.3317 35.5862 58.3815 35.556 58.4081 35.5096L58.8364 34.7717C58.8954 34.6708 58.8224 34.5455 58.7055 34.5455L58.7044 34.5443Z" fill="#4779FF"/>
<path d="M53.8079 34.535H52.956C52.8672 34.535 52.7952 34.6072 52.7952 34.6963V40.2537C52.7952 40.3427 52.8672 40.415 52.956 40.415H53.8079C53.8967 40.415 53.9688 40.3427 53.9688 40.2537V34.6963C53.9688 34.6072 53.8967 34.535 53.8079 34.535Z" fill="#4779FF"/>
<path d="M53.846 32.5256H52.9155C52.8215 32.5256 52.7453 32.6019 52.7453 32.6961V33.6881C52.7453 33.7823 52.8215 33.8586 52.9155 33.8586H53.846C53.94 33.8586 54.0161 33.7823 54.0161 33.6881V32.6961C54.0161 32.6019 53.94 32.5256 53.846 32.5256Z" fill="#4779FF"/>
<path d="M51.6744 32.5256H46.5749C46.4858 32.5256 46.4141 32.5975 46.4141 32.6868V40.2514C46.4141 40.3407 46.4858 40.4126 46.5749 40.4126H47.4696C47.5587 40.4126 47.6305 40.3407 47.6305 40.2514V36.7835C47.6305 36.7 47.6988 36.6327 47.7809 36.6327L50.6258 36.6281C50.6744 36.6281 50.7195 36.6072 50.7497 36.5689L51.1628 35.8519C51.2497 35.7463 51.1744 35.5873 51.039 35.5873H48.5726C48.4487 35.5873 48.3307 35.6326 48.2369 35.7161C48.1258 35.8159 47.9789 35.947 47.9105 36.0085C47.8018 36.1048 47.6316 36.0271 47.6316 35.882V33.7821C47.6316 33.6927 47.7034 33.6208 47.7925 33.6208H51.2381C51.2924 33.6208 51.3422 33.5918 51.3688 33.5454L51.8029 32.7843C51.8839 32.6787 51.8086 32.5244 51.6744 32.5244V32.5256Z" fill="#4779FF"/>
<path d="M86.3553 38.3231H85.5116C85.4378 38.3231 85.3752 38.373 85.3566 38.4438C85.1784 39.1492 84.6531 39.5448 83.9055 39.5448C82.845 39.5448 82.212 38.8092 82.212 37.475C82.212 36.1408 82.8325 35.4052 83.9055 35.4052C84.9779 35.4052 85.2685 36.1628 85.3464 36.4621C85.3645 36.5318 85.4295 36.5816 85.5014 36.5816H86.3521C86.4537 36.5816 86.5303 36.4877 86.5117 36.3879C86.2607 35.1082 85.3209 34.3993 83.86 34.3993C82.044 34.3993 81.0407 35.5073 81.0407 37.4738C81.0407 39.4404 82.0454 40.5484 83.86 40.5484C85.3242 40.5484 86.2746 39.8175 86.515 38.5134C86.5335 38.4136 86.456 38.322 86.3553 38.322V38.3231Z" fill="#4779FF"/>
<path d="M89.9116 37.2662C89.8522 37.2 89.8568 37.0991 89.9218 37.0399L92.3963 34.7752C92.49 34.6905 92.4302 34.535 92.3025 34.535H91.2435C91.2041 34.535 91.1651 34.5501 91.1349 34.5768L88.8962 36.6269C88.821 36.6965 88.6999 36.642 88.6999 36.5399V32.6857C88.6999 32.5963 88.6289 32.5256 88.5398 32.5256H87.6859C87.5968 32.5256 87.5262 32.5963 87.5262 32.6857V40.2548C87.5262 40.3442 87.5968 40.415 87.6859 40.415H88.5398C88.6289 40.415 88.6999 40.3442 88.6999 40.2548V37.8091C88.6999 37.7001 88.834 37.649 88.9055 37.7302L91.2356 40.3616C91.2658 40.3952 91.3094 40.4161 91.3549 40.4161H92.4288C92.548 40.4161 92.6107 40.2746 92.5304 40.1852L89.9102 37.2662H89.9116Z" fill="#4779FF"/>
<path d="M95.7057 36.9459C94.487 36.7185 94.2057 36.5596 94.2057 36.0735C94.2057 35.5873 94.7125 35.2822 95.346 35.2822C96.457 35.2822 96.6593 35.9331 96.6942 36.2278C96.7034 36.309 96.774 36.3682 96.8538 36.3682H97.6697C97.7648 36.3682 97.8386 36.287 97.8307 36.193C97.7402 35.0664 96.8598 34.4016 95.346 34.4016C93.9918 34.4016 93.0562 35.0571 93.0562 36.121C93.0562 37.0248 93.531 37.6131 95.3571 37.9194C96.6213 38.1236 96.7888 38.337 96.7888 38.8359C96.7888 39.3905 96.3039 39.6724 95.5149 39.6724C94.3157 39.6736 94.1213 38.9554 94.0948 38.6352C94.0888 38.5505 94.0192 38.4855 93.9338 38.4855H93.1096C93.0158 38.4855 92.9407 38.5656 92.949 38.6596C93.0404 39.9834 94.0739 40.5542 95.4903 40.5542C96.9072 40.5542 97.9602 39.9207 97.9602 38.7686C97.9602 37.7743 97.4636 37.2882 95.7047 36.9483L95.7057 36.9459Z" fill="#4779FF"/>
<path d="M73.3646 32.5256H72.5128C72.4239 32.5256 72.3519 32.5978 72.3519 32.6868V40.2525C72.3519 40.3416 72.4239 40.4138 72.5128 40.4138H73.3646C73.4535 40.4138 73.5255 40.3416 73.5255 40.2525V32.6868C73.5255 32.5978 73.4535 32.5256 73.3646 32.5256Z" fill="#4779FF"/>
<path d="M77.4292 34.3993C75.6133 34.3993 74.53 35.7219 74.53 37.4738C74.53 39.2257 75.6133 40.5484 77.4292 40.5484C79.2451 40.5484 80.3283 39.2257 80.3283 37.4738C80.3283 35.7219 79.2451 34.3993 77.4292 34.3993ZM77.4292 39.5889C76.2672 39.5889 75.7255 38.6955 75.7255 37.4738C75.7255 36.2521 76.2661 35.3588 77.4292 35.3588C78.5927 35.3588 79.1328 36.2521 79.1328 37.4738C79.1328 38.6955 78.5927 39.5889 77.4292 39.5889Z" fill="#4779FF"/>
<path d="M68.9489 34.4097C68.1572 34.4109 67.5195 34.7114 67.1433 35.2358C67.0797 35.3228 66.942 35.2764 66.942 35.1697V32.688C66.942 32.5987 66.8702 32.5267 66.7811 32.5267H65.9304C65.8413 32.5267 65.7695 32.5987 65.7695 32.688V40.2525C65.7695 40.3419 65.8413 40.4138 65.9304 40.4138H66.736C66.8251 40.4138 66.8968 40.3419 66.8968 40.2525V39.6191C66.8968 39.5135 67.0334 39.4775 67.0901 39.5657C67.4686 40.1632 68.119 40.5391 68.9269 40.5391C70.5287 40.5391 71.509 39.4079 71.509 37.475C71.509 35.5421 70.5172 34.4109 68.9489 34.4109V34.4097ZM68.6225 39.5668C67.5728 39.5668 66.9524 38.764 66.9524 37.475C66.9524 36.186 67.5728 35.3716 68.6225 35.3716C69.6723 35.3716 70.3158 36.1849 70.3158 37.475C70.3158 38.7651 69.6838 39.5668 68.6225 39.5668Z" fill="#4779FF"/>
<path d="M39.4046 40.5556H38.667L36.8516 34.6553H37.8728L39.518 40.1811L41.2881 34.6553H42.3207L39.6202 42.8249H38.6784L39.4046 40.5556Z" fill="black"/>
<path d="M30.9141 32.3862H31.8785V35.7108C32.045 35.3175 32.2946 35.0224 32.6274 34.8258C32.9602 34.6215 33.3914 34.5194 33.9209 34.5194C34.7303 34.5194 35.362 34.7917 35.8158 35.3364C36.2773 35.8734 36.508 36.6299 36.508 37.6057C36.508 38.5815 36.2773 39.3418 35.8158 39.8864C35.362 40.4235 34.7303 40.692 33.9209 40.692C33.3612 40.692 32.9111 40.5861 32.5707 40.3743C32.2378 40.1549 31.992 39.8259 31.8331 39.3871V40.5559H30.9141V32.3862ZM31.7878 37.6057C31.7878 38.3168 31.9466 38.8652 32.2643 39.251C32.5896 39.6368 33.051 39.8297 33.6486 39.8297C34.2462 39.8297 34.7039 39.6368 35.0216 39.251C35.3468 38.8652 35.5095 38.3168 35.5095 37.6057C35.5095 36.8947 35.3468 36.3462 35.0216 35.9604C34.7039 35.5747 34.2462 35.3818 33.6486 35.3818C33.051 35.3818 32.5896 35.5747 32.2643 35.9604C31.9466 36.3462 31.7878 36.8947 31.7878 37.6057Z" fill="black"/>
</svg>
