<svg width="103" height="57" viewBox="0 0 103 57" fill="none" xmlns="http://www.w3.org/2000/svg">
<path d="M12.9908 25.0855C13.5549 25.9015 13.9508 26.4846 14.1784 26.8349H14.2219C14.5359 26.3502 14.9288 25.7701 15.4006 25.0945L16.969 22.8467C17.0002 22.8025 17.0415 22.7666 17.0892 22.7419C17.137 22.7172 17.1899 22.7044 17.2435 22.7047H18.8852C18.9457 22.7033 19.0054 22.719 19.0576 22.75C19.1098 22.781 19.1525 22.8262 19.1808 22.8804C19.2091 22.9346 19.222 22.9957 19.218 23.0569C19.214 23.1181 19.1933 23.1769 19.1582 23.2269L15.5994 28.2097C15.5593 28.2655 15.5377 28.3328 15.5377 28.4018C15.5377 28.4709 15.5593 28.5382 15.5994 28.594L19.3272 33.7669C19.3624 33.8168 19.3833 33.8756 19.3874 33.9368C19.3916 33.998 19.3789 34.0591 19.3507 34.1135C19.3226 34.1678 19.2801 34.2131 19.2281 34.2444C19.176 34.2757 19.1164 34.2917 19.0559 34.2907H17.4505C17.397 34.2908 17.3443 34.2779 17.2967 34.2533C17.249 34.2286 17.2079 34.1927 17.1767 34.1487L15.4513 31.701C15.0031 31.0662 14.5898 30.466 14.2114 29.9003H14.1768C13.7806 30.4894 13.3673 31.0896 12.9369 31.701L11.2114 34.1487C11.1802 34.1927 11.1391 34.2286 11.0915 34.2533C11.0439 34.2779 10.9912 34.2908 10.9377 34.2907H9.33305C9.27242 34.292 9.21262 34.2762 9.16039 34.2449C9.10815 34.2137 9.06555 34.1683 9.03736 34.1139C9.00917 34.0595 8.99652 33.9982 9.00082 33.9369C9.00512 33.8756 9.02621 33.8167 9.06172 33.7669L12.7895 28.594C12.8296 28.5382 12.8512 28.4709 12.8512 28.4018C12.8512 28.3328 12.8296 28.2655 12.7895 28.2097L9.2308 23.2269C9.19566 23.1769 9.17494 23.1181 9.17094 23.0569C9.16694 22.9957 9.17983 22.9346 9.20815 22.8804C9.23648 22.8262 9.27913 22.781 9.33134 22.75C9.38354 22.719 9.44323 22.7033 9.50374 22.7047H11.1454C11.199 22.7046 11.2519 22.7174 11.2996 22.742C11.3474 22.7667 11.3886 22.8026 11.42 22.8467L12.9908 25.0855Z" fill="#0D0E0F"/>
<path d="M33.4722 26.1854C33.4722 26.9937 33.2468 27.6794 32.7959 28.2424C32.345 28.8053 31.6473 29.2223 30.7026 29.4932V29.5274L33.7951 33.7653C33.8307 33.8151 33.8519 33.8741 33.8563 33.9354C33.8607 33.9968 33.8482 34.0582 33.8201 34.1128C33.792 34.1673 33.7495 34.2129 33.6973 34.2443C33.6451 34.2757 33.5853 34.2918 33.5246 34.2907H31.7855C31.7322 34.2908 31.6797 34.278 31.6322 34.2535C31.5848 34.2289 31.5438 34.1933 31.5125 34.1496L28.5335 29.946C28.5024 29.9022 28.4614 29.8665 28.4139 29.8419C28.3664 29.8174 28.3139 29.8047 28.2606 29.8048H27.3008C27.2132 29.804 27.1288 29.8384 27.0662 29.9005C27.0036 29.9626 26.9678 30.0473 26.9667 30.1361V33.9595C26.9657 34.0483 26.9299 34.133 26.8672 34.1951C26.8046 34.2572 26.7202 34.2916 26.6326 34.2907H25.1624C25.0748 34.2916 24.9904 34.2572 24.9277 34.1951C24.8651 34.133 24.8293 34.0483 24.8283 33.9595V23.0352C24.8288 22.9913 24.8379 22.9479 24.8549 22.9075C24.872 22.8671 24.8968 22.8305 24.9278 22.7998C24.9588 22.7691 24.9955 22.745 25.0358 22.7286C25.076 22.7123 25.119 22.7042 25.1624 22.7047H28.383C28.9317 22.7021 29.4801 22.7353 30.0246 22.8043C30.4678 22.8556 30.9041 22.9557 31.3257 23.1029C32.0123 23.3624 32.542 23.7478 32.9151 24.2591C33.2881 24.7704 33.4739 25.4125 33.4722 26.1854ZM28.0231 28.0302C28.4389 28.0341 28.8546 28.0123 29.2678 27.965C29.5607 27.9326 29.8491 27.8672 30.1277 27.7699C30.5571 27.6068 30.8555 27.3859 31.023 27.1074C31.1922 26.8151 31.2783 26.481 31.2718 26.1422C31.2776 25.8539 31.2099 25.5689 31.0753 25.3149C30.9438 25.0755 30.7211 24.8865 30.4071 24.7478C30.1616 24.6443 29.9031 24.5759 29.639 24.5446C29.2595 24.497 28.8772 24.4752 28.4949 24.4794H27.3008C27.2132 24.4785 27.1288 24.5129 27.0662 24.575C27.0036 24.6371 26.9678 24.7218 26.9667 24.8106V27.699C26.9678 27.7878 27.0036 27.8725 27.0662 27.9346C27.1288 27.9967 27.2132 28.0311 27.3008 28.0302H28.0231Z" fill="#0D0E0F"/>
<path d="M41.8003 32.5152H46.8783C46.9217 32.5146 46.9648 32.5228 47.0051 32.5392C47.0454 32.5555 47.0822 32.5798 47.1132 32.6106C47.1442 32.6413 47.169 32.678 47.186 32.7185C47.203 32.759 47.212 32.8024 47.2124 32.8464V33.9594C47.212 34.0034 47.203 34.0468 47.186 34.0873C47.169 34.1278 47.1442 34.1645 47.1132 34.1952C47.0822 34.226 47.0454 34.2503 47.0051 34.2666C46.9648 34.283 46.9217 34.2912 46.8783 34.2906H39.661C39.6177 34.2911 39.5747 34.2828 39.5345 34.2664C39.4943 34.25 39.4576 34.2257 39.4267 34.195C39.3957 34.1642 39.371 34.1276 39.3541 34.0871C39.3371 34.0467 39.3281 34.0033 39.3277 33.9594V23.0351C39.3281 22.9912 39.3371 22.9478 39.3541 22.9074C39.3711 22.867 39.3958 22.8304 39.4267 22.7998C39.4577 22.7691 39.4943 22.7449 39.5345 22.7285C39.5747 22.7122 39.6177 22.7041 39.661 22.7046H46.5643C46.6076 22.7041 46.6507 22.7122 46.6909 22.7285C46.7312 22.7448 46.7679 22.769 46.7989 22.7997C46.8299 22.8304 46.8547 22.867 46.8718 22.9074C46.8889 22.9477 46.8979 22.9911 46.8984 23.0351V24.148C46.898 24.192 46.889 24.2355 46.872 24.2759C46.855 24.3164 46.8302 24.3531 46.7992 24.3839C46.7682 24.4146 46.7314 24.4389 46.6911 24.4553C46.6508 24.4716 46.6077 24.4798 46.5643 24.4792H41.8003C41.7569 24.4788 41.7139 24.487 41.6737 24.5034C41.6335 24.5199 41.5969 24.5441 41.5659 24.5749C41.535 24.6057 41.5103 24.6423 41.4933 24.6827C41.4763 24.7231 41.4674 24.7666 41.467 24.8105V27.144C41.4673 27.188 41.4762 27.2314 41.4931 27.2719C41.5101 27.3124 41.5347 27.3491 41.5657 27.3798C41.5967 27.4106 41.6333 27.4349 41.6736 27.4513C41.7139 27.4677 41.7569 27.4758 41.8003 27.4753H45.7962C45.8396 27.4748 45.8826 27.4831 45.9228 27.4995C45.963 27.5159 45.9996 27.5402 46.0306 27.5709C46.0615 27.6017 46.0862 27.6383 46.1032 27.6788C46.1202 27.7192 46.1291 27.7626 46.1295 27.8065V28.9194C46.1291 28.9634 46.1202 29.0068 46.1032 29.0472C46.0862 29.0876 46.0615 29.1243 46.0306 29.155C45.9996 29.1858 45.963 29.2101 45.9228 29.2265C45.8826 29.2429 45.8396 29.2511 45.7962 29.2507H41.8003C41.7569 29.2503 41.7139 29.2585 41.6737 29.2749C41.6335 29.2913 41.5969 29.3156 41.5659 29.3464C41.535 29.3771 41.5103 29.4138 41.4933 29.4542C41.4763 29.4946 41.4674 29.538 41.467 29.582V32.1839C41.4674 32.2279 41.4763 32.2713 41.4933 32.3117C41.5103 32.3521 41.535 32.3888 41.5659 32.4195C41.5969 32.4503 41.6335 32.4746 41.6737 32.491C41.7139 32.5074 41.7569 32.5156 41.8003 32.5152Z" fill="#0D0E0F"/>
<path d="M55.9069 25.0855C56.471 25.9014 56.8669 26.4845 57.0945 26.8348H57.138C57.452 26.3502 57.8449 25.7701 58.3167 25.0945L59.8851 22.8466C59.9165 22.8026 59.9577 22.7667 60.0054 22.742C60.0532 22.7173 60.1061 22.7045 60.1597 22.7047H61.8013C61.8618 22.7033 61.9215 22.719 61.9737 22.75C62.026 22.781 62.0686 22.8262 62.0969 22.8804C62.1253 22.9346 62.1381 22.9957 62.1341 23.0569C62.1301 23.1181 62.1094 23.1769 62.0743 23.2269L58.5156 28.2097C58.4754 28.2655 58.4538 28.3328 58.4538 28.4018C58.4538 28.4709 58.4754 28.5381 58.5156 28.594L62.2434 33.7669C62.2789 33.8167 62.3 33.8756 62.3043 33.9369C62.3086 33.9982 62.2959 34.0595 62.2677 34.1139C62.2395 34.1683 62.1969 34.2137 62.1447 34.2449C62.0925 34.2762 62.0327 34.292 61.972 34.2907H60.3682C60.3147 34.2908 60.262 34.2779 60.2144 34.2532C60.1668 34.2286 60.1257 34.1927 60.0944 34.1487L58.369 31.701C57.9208 31.0662 57.5075 30.4659 57.1291 29.9002H57.0945C56.6984 30.4893 56.2851 31.0896 55.8546 31.701L54.1292 34.1487C54.098 34.1927 54.0568 34.2286 54.0092 34.2532C53.9616 34.2779 53.9089 34.2908 53.8554 34.2907H52.2508C52.1903 34.2917 52.1307 34.2757 52.0786 34.2444C52.0265 34.2131 51.9841 34.1677 51.956 34.1134C51.9278 34.0591 51.9151 33.998 51.9193 33.9368C51.9234 33.8756 51.9442 33.8168 51.9794 33.7669L55.7072 28.594C55.7474 28.5381 55.769 28.4709 55.769 28.4018C55.769 28.3328 55.7474 28.2655 55.7072 28.2097L52.1485 23.2269C52.1134 23.1769 52.0927 23.1181 52.0887 23.0569C52.0847 22.9957 52.0976 22.9346 52.1259 22.8804C52.1542 22.8262 52.1969 22.781 52.2491 22.75C52.3013 22.719 52.361 22.7033 52.4215 22.7047H54.0631C54.1167 22.7045 54.1696 22.7173 54.2174 22.742C54.2651 22.7667 54.3064 22.8026 54.3377 22.8466L55.9069 25.0855Z" fill="#0D0E0F"/>
<path d="M68.0703 22.6816C68.0703 21.8783 68.7153 21.2271 69.511 21.2271H91.8415C92.6372 21.2271 93.2822 21.8783 93.2822 22.6816V34.318C93.2822 35.1213 92.6372 35.7725 91.8415 35.7725H69.511C68.7153 35.7725 68.0703 35.1213 68.0703 34.318V22.6816Z" fill="#0184FF"/>
<path d="M72.2422 31.4102L73.3728 24.5342H76.1861C76.696 24.5342 77.1206 24.6338 77.4598 24.833C77.799 25.0322 78.0395 25.3109 78.1814 25.669C78.3233 26.0271 78.3554 26.4423 78.2778 26.9146C78.2025 27.3914 78.0329 27.8066 77.769 28.1602C77.5074 28.5139 77.1705 28.7881 76.7581 28.9828C76.3458 29.1775 75.8769 29.2749 75.3515 29.2749H73.6189L73.8351 27.9655H75.265C75.5155 27.9655 75.7317 27.9218 75.9135 27.8345C76.0975 27.7472 76.2449 27.6253 76.3557 27.4686C76.4666 27.3119 76.5397 27.1272 76.5752 26.9146C76.6085 26.702 76.5952 26.5184 76.5353 26.364C76.4755 26.2073 76.3679 26.0864 76.2127 26.0014C76.0598 25.9163 75.8603 25.8738 75.6142 25.8738H74.8028L73.8883 31.4102H72.2422Z" fill="white"/>
<path d="M79.5856 31.4975C79.2619 31.4975 78.9826 31.4427 78.7476 31.333C78.5148 31.2211 78.3441 31.0521 78.2354 30.826C78.129 30.6 78.1035 30.3179 78.159 29.9799C78.2077 29.6934 78.2975 29.4528 78.4283 29.2581C78.5613 29.0611 78.7243 28.9011 78.9172 28.778C79.1122 28.6549 79.3295 28.5609 79.5689 28.496C79.8084 28.431 80.0589 28.3874 80.3205 28.365C80.6131 28.3382 80.8503 28.3091 81.0321 28.2777C81.2161 28.2464 81.3536 28.2027 81.4445 28.1468C81.5354 28.0886 81.5908 28.008 81.6108 27.905V27.8883C81.6374 27.7159 81.6008 27.5827 81.501 27.4887C81.4012 27.3947 81.2516 27.3477 81.0521 27.3477C80.8393 27.3477 80.6575 27.3947 80.5067 27.4887C80.356 27.5827 80.2507 27.7126 80.1908 27.8782L78.701 27.8245C78.7941 27.5111 78.9537 27.2313 79.1799 26.9851C79.406 26.7367 79.6931 26.5419 80.0411 26.4009C80.3914 26.2577 80.796 26.186 81.2549 26.186C81.5786 26.186 81.8712 26.2252 82.1328 26.3035C82.3944 26.3797 82.615 26.4916 82.7946 26.6393C82.9764 26.7848 83.1061 26.9638 83.1837 27.1765C83.2613 27.3891 83.2779 27.632 83.2336 27.905L82.6516 31.4102H81.1219L81.2416 30.6917H81.2017C81.082 30.8663 80.9412 31.014 80.7794 31.1349C80.6198 31.2558 80.4402 31.3464 80.2407 31.4069C80.0411 31.4673 79.8228 31.4975 79.5856 31.4975ZM80.2706 30.4231C80.4413 30.4231 80.6031 30.3873 80.7561 30.3157C80.9091 30.2441 81.0377 30.1456 81.1419 30.0202C81.2483 29.8927 81.3159 29.7449 81.3447 29.5771L81.4212 29.0869C81.3746 29.1115 81.3159 29.1339 81.245 29.154C81.174 29.1742 81.0986 29.1932 81.0188 29.2111C80.939 29.2268 80.857 29.2424 80.7727 29.2581C80.6907 29.2715 80.612 29.2838 80.5366 29.295C80.377 29.3196 80.2385 29.3577 80.121 29.4092C80.0035 29.4607 79.9092 29.5278 79.8383 29.6106C79.7696 29.6912 79.7274 29.7875 79.7119 29.8994C79.6853 30.0672 79.7241 30.1971 79.8283 30.2888C79.9325 30.3784 80.0799 30.4231 80.2706 30.4231Z" fill="white"/>
<path d="M84.1447 33.3441C83.9496 33.3441 83.7678 33.3284 83.5994 33.2971C83.4331 33.268 83.2912 33.2288 83.1737 33.1796L83.7324 31.9877C83.8809 32.0414 84.0173 32.0716 84.1414 32.0783C84.2678 32.0873 84.3808 32.066 84.4806 32.0146C84.5826 31.9653 84.6713 31.8769 84.7466 31.7493L84.8397 31.5915L83.9053 26.2532H85.5481L85.8806 29.9363H85.9338L87.4968 26.2532H89.2692L86.4193 31.9038C86.2752 32.1858 86.1012 32.4354 85.8972 32.6525C85.6933 32.8696 85.4472 33.0386 85.159 33.1594C84.873 33.2825 84.5349 33.3441 84.1447 33.3441Z" fill="white"/>
</svg>
