<svg width="120" height="38" viewBox="0 0 120 38" fill="none" xmlns="http://www.w3.org/2000/svg">
<path d="M10.6183 1.5871C10.1651 2.00956 9.71957 2.4242 9.27409 2.83687C7.20492 4.7575 5.13577 6.68009 3.06464 8.5968C2.58985 9.03687 2.09747 9.45932 1.50153 9.71749C0.792275 10.0246 0.385865 9.83288 0.157261 9.06815C-0.161223 7.99832 0.00876496 7.00084 0.624239 6.0816C1.14789 5.29926 1.80829 4.64798 2.48629 4.0143C3.56678 3.00508 4.65511 2.00565 5.75709 1.02382C6.2397 0.593536 6.76726 0.200418 7.41203 0.0693769C9.34248 -0.319833 10.5735 1.53038 10.6204 1.58514L10.6183 1.5871Z" fill="#4779FF"/>
<path d="M1.33105 11.3582C2.50534 11.0198 3.38655 10.2747 4.2443 9.49038C6.97974 6.99474 9.71127 4.49715 12.4584 2.0152C13.0642 1.46758 13.7011 0.943401 14.3752 0.485742C15.233 -0.0970967 16.165 -0.181198 17.0833 0.374259C17.4155 0.573757 17.7417 0.806495 18.0113 1.08423C18.9472 2.05236 19.8715 3.03615 20.7721 4.03753C21.7297 5.1015 22.6714 6.18113 23.5877 7.28029C23.9023 7.65777 24.1602 8.09782 24.3733 8.54376C24.7699 9.37304 24.6683 10.1925 24.1856 10.9651C23.7538 11.6574 23.1755 12.2247 22.5796 12.7625C20.2466 14.8709 17.9136 16.9793 15.5534 19.0583C14.9204 19.6176 14.2228 20.1184 13.5037 20.5604C12.1497 21.3956 10.7918 21.2919 9.55692 20.3023C8.83789 19.7271 8.16184 19.0837 7.54441 18.3992C5.55536 16.195 3.60342 13.9594 1.63781 11.7337C1.53817 11.6223 1.44828 11.501 1.33105 11.3562V11.3582Z" fill="#4779FF"/>
<path d="M41.8015 0.439456H44.7675V16.5202H41.8015V15.1649C40.9281 16.2836 39.6854 16.841 38.0773 16.841C36.4694 16.841 35.2072 16.2542 34.111 15.0828C33.015 13.9112 32.4678 12.4757 32.4678 10.776C32.4678 9.07641 33.015 7.64083 34.111 6.46928C35.2072 5.29774 36.528 4.71099 38.0773 4.71099C39.6269 4.71099 40.9281 5.27036 41.8015 6.38714V0.4375V0.439456ZM36.3404 13.1093C36.9461 13.7137 37.7081 14.0168 38.6284 14.0168C39.5487 14.0168 40.3068 13.7137 40.9047 13.1093C41.5026 12.505 41.8015 11.7265 41.8015 10.778C41.8015 9.8294 41.5026 9.05098 40.9047 8.44662C40.3068 7.84228 39.5487 7.53912 38.6284 7.53912C37.7081 7.53912 36.9461 7.84228 36.3404 8.44662C35.7346 9.05098 35.4319 9.8294 35.4319 10.778C35.4319 11.7265 35.7346 12.505 36.3404 13.1093Z" fill="black"/>
<path d="M54.6772 5.03125H57.8505L53.6593 16.5374C53.0615 18.1784 52.2701 19.3695 51.2814 20.1127C50.2947 20.8559 49.0657 21.1903 47.5964 21.1121V18.3563C48.3936 18.372 49.0247 18.2037 49.4936 17.8517C49.9606 17.4997 50.3337 16.9324 50.6093 16.1521L45.8965 5.03321H49.1379L52.1352 12.7528L54.6792 5.03321L54.6772 5.03125Z" fill="black"/>
<path d="M65.3882 4.70898C66.6445 4.70898 67.684 5.12949 68.5027 5.97245C69.3234 6.81542 69.7316 7.97914 69.7316 9.46361V16.5164H66.7657V9.83131C66.7657 9.06657 66.5586 8.47983 66.1444 8.07301C65.7301 7.66815 65.1792 7.46475 64.4895 7.46475C63.7235 7.46475 63.1099 7.70141 62.6508 8.17668C62.1917 8.65195 61.9611 9.36387 61.9611 10.3124V16.5144H58.9951V5.02779H61.9611V6.31473C62.6821 5.24293 63.8232 4.70703 65.3863 4.70703L65.3882 4.70898Z" fill="black"/>
<path d="M80.5271 5.03365H83.4931V16.5203H80.5271V15.1649C79.6382 16.2835 78.3896 16.8409 76.7795 16.8409C75.1696 16.8409 73.9328 16.2543 72.8366 15.0827C71.7404 13.9111 71.1934 12.4756 71.1934 10.776C71.1934 9.07634 71.7404 7.64076 72.8366 6.46922C73.9328 5.29769 75.2457 4.71094 76.7795 4.71094C78.3896 4.71094 79.6382 5.27031 80.5271 6.38709V5.03169V5.03365ZM75.0542 13.1093C75.6522 13.7136 76.4103 14.0167 77.3306 14.0167C78.2509 14.0167 79.0129 13.7136 79.6185 13.1093C80.2242 12.5049 80.5271 11.7265 80.5271 10.778C80.5271 9.82934 80.2242 9.05092 79.6185 8.44657C79.0129 7.84222 78.2509 7.53907 77.3306 7.53907C76.4103 7.53907 75.6522 7.84222 75.0542 8.44657C74.4564 9.05092 74.1575 9.82934 74.1575 10.778C74.1575 11.7265 74.4564 12.5049 75.0542 13.1093Z" fill="black"/>
<path d="M98.0879 4.71094C99.4068 4.71094 100.46 5.13925 101.249 5.99787C102.039 6.85648 102.433 8.00455 102.433 9.44404V16.5203H99.4674V9.65137C99.4674 8.96291 99.2993 8.42702 98.9613 8.04367C98.6233 7.66033 98.1484 7.46865 97.535 7.46865C96.8609 7.46865 96.3352 7.69162 95.9602 8.1356C95.585 8.57958 95.3975 9.22303 95.3975 10.066V16.5222H92.4315V9.65332C92.4315 8.96487 92.2635 8.42897 91.9253 8.04562C91.5874 7.66228 91.1126 7.47062 90.499 7.47062C89.8406 7.47062 89.315 7.69358 88.9242 8.13755C88.5334 8.58153 88.3379 9.225 88.3379 10.068V16.5242H85.3721V5.03756H88.3379V6.25603C89.0278 5.22923 90.0925 4.7168 91.5346 4.7168C92.9766 4.7168 93.9868 5.26835 94.6608 6.37144C95.4267 5.26835 96.5697 4.7168 98.086 4.7168L98.0879 4.71094Z" fill="black"/>
<path d="M105.782 3.65349C105.292 3.65349 104.866 3.47356 104.506 3.11368C104.147 2.75381 103.965 2.32939 103.965 1.83848C103.965 1.34757 104.145 0.919235 104.506 0.551545C104.866 0.183848 105.292 0 105.782 0C106.272 0 106.72 0.183848 107.081 0.551545C107.441 0.919235 107.621 1.34757 107.621 1.83848C107.621 2.32939 107.441 2.75381 107.081 3.11368C106.722 3.47356 106.288 3.65349 105.782 3.65349ZM104.311 16.5189V5.03235H107.277V16.5189H104.311Z" fill="black"/>
<path d="M114.804 16.8409C113.071 16.8409 111.627 16.2601 110.471 15.0944C109.314 13.9307 108.735 12.4912 108.735 10.776C108.735 9.06071 109.314 7.62121 110.471 6.45749C111.627 5.29378 113.073 4.71094 114.804 4.71094C115.924 4.71094 116.942 4.97888 117.862 5.51478C118.782 6.05067 119.48 6.77042 119.954 7.67402L117.403 9.16632C117.172 8.69105 116.825 8.31553 116.358 8.03977C115.891 7.76399 115.365 7.62708 114.783 7.62708C113.894 7.62708 113.157 7.92241 112.575 8.51112C111.993 9.10178 111.701 9.85477 111.701 10.7741C111.701 11.6933 111.993 12.4247 112.575 13.0135C113.157 13.6041 113.894 13.8975 114.783 13.8975C115.381 13.8975 115.912 13.7645 116.381 13.4946C116.848 13.2266 117.197 12.855 117.427 12.3798L120.002 13.8504C119.496 14.7541 118.782 15.4778 117.864 16.0216C116.945 16.5652 115.927 16.8371 114.806 16.8371L114.804 16.8409Z" fill="black"/>
<path d="M72.8942 26.409C70.5383 26.409 69.2129 27.8572 69.2129 30.4264C69.2129 32.9957 70.5383 34.4409 72.8942 34.4409C74.6442 34.4409 75.9559 33.694 76.37 32.0458C76.4032 31.9125 76.3005 31.7822 76.166 31.7822H75.1202C75.022 31.7822 74.9374 31.8489 74.9162 31.9443C74.8271 32.3261 74.4508 33.2593 72.8942 33.2593C71.7563 33.2593 70.9432 32.5124 70.7196 31.1869C70.6984 31.0581 70.7982 30.94 70.9281 30.94H76.3655C76.4818 30.94 76.5755 30.8461 76.5755 30.7294V30.4991C76.5755 27.8723 75.2502 26.409 72.8942 26.409ZM74.8785 29.8493H70.9266C70.7966 29.8493 70.6969 29.7326 70.7181 29.6054C70.9281 28.3268 71.7034 27.6072 72.9108 27.6072C74.1183 27.6072 74.8785 28.3268 75.087 29.6054C75.1081 29.7341 75.0084 29.8493 74.8785 29.8493Z" fill="#4779FF"/>
<path d="M68.7507 26.5983H67.9557C67.2333 26.5983 66.5669 26.9846 66.2058 27.6118C66.106 27.7875 65.8385 27.7148 65.8385 27.5133V26.7998C65.8385 26.6832 65.7448 26.5892 65.6285 26.5892H64.4724C64.3561 26.5892 64.2624 26.6832 64.2624 26.7998V34.0531C64.2624 34.1697 64.3561 34.2636 64.4724 34.2636H65.6285C65.7448 34.2636 65.8385 34.1697 65.8385 34.0531V29.5357C65.8385 28.6646 66.5427 27.9587 67.4102 27.9587H68.193C68.264 27.9587 68.329 27.9193 68.3638 27.8587L68.9229 26.8953C69 26.7635 68.9047 26.5998 68.7521 26.5998L68.7507 26.5983Z" fill="#4779FF"/>
<path d="M62.3573 26.5862H61.245C61.129 26.5862 61.035 26.6805 61.035 26.7968V34.0531C61.035 34.1693 61.129 34.2636 61.245 34.2636H62.3573C62.4732 34.2636 62.5673 34.1693 62.5673 34.0531V26.7968C62.5673 26.6805 62.4732 26.5862 62.3573 26.5862Z" fill="#4779FF"/>
<path d="M62.407 23.9624H61.192C61.0693 23.9624 60.9699 24.0621 60.9699 24.1851V25.4803C60.9699 25.6033 61.0693 25.703 61.192 25.703H62.407C62.5297 25.703 62.6292 25.6033 62.6292 25.4803V24.1851C62.6292 24.0621 62.5297 23.9624 62.407 23.9624Z" fill="#4779FF"/>
<path d="M59.5715 23.9625H52.9131C52.7968 23.9625 52.7031 24.0564 52.7031 24.173V34.05C52.7031 34.1667 52.7968 34.2606 52.9131 34.2606H54.0814C54.1977 34.2606 54.2914 34.1667 54.2914 34.05V29.522C54.2914 29.413 54.3806 29.3251 54.4878 29.3251L58.2024 29.3191C58.2659 29.3191 58.3248 29.2918 58.3641 29.2418L58.9036 28.3056C59.017 28.1677 58.9187 27.9602 58.7419 27.9602H55.5215C55.3598 27.9602 55.2056 28.0193 55.0832 28.1284C54.9382 28.2586 54.7463 28.4298 54.6571 28.5101C54.515 28.6358 54.2929 28.5343 54.2929 28.345V25.6031C54.2929 25.4864 54.3866 25.3925 54.503 25.3925H59.0018C59.0728 25.3925 59.1378 25.3546 59.1726 25.294L59.7393 24.3003C59.8451 24.1624 59.7468 23.9609 59.5715 23.9609V23.9625Z" fill="#4779FF"/>
<path d="M104.854 31.5323H103.753C103.656 31.5323 103.575 31.5974 103.55 31.6898C103.318 32.6109 102.632 33.1275 101.656 33.1275C100.271 33.1275 99.4445 32.167 99.4445 30.4249C99.4445 28.6828 100.255 27.7224 101.656 27.7224C103.056 27.7224 103.435 28.7116 103.537 29.1024C103.561 29.1933 103.646 29.2585 103.739 29.2585H104.85C104.983 29.2585 105.083 29.1358 105.059 29.0055C104.731 27.3346 103.504 26.409 101.596 26.409C99.2252 26.409 97.9151 27.8557 97.9151 30.4234C97.9151 32.9911 99.227 34.4378 101.596 34.4378C103.508 34.4378 104.749 33.4835 105.063 31.7807C105.087 31.6505 104.986 31.5308 104.854 31.5308V31.5323Z" fill="#4779FF"/>
<path d="M109.498 30.1522C109.42 30.0659 109.426 29.9341 109.511 29.8568L112.742 26.8998C112.865 26.7892 112.786 26.5862 112.62 26.5862H111.237C111.185 26.5862 111.135 26.6059 111.095 26.6407L108.172 29.3175C108.074 29.4084 107.916 29.3372 107.916 29.2039V24.1715C107.916 24.0548 107.823 23.9624 107.707 23.9624H106.592C106.475 23.9624 106.383 24.0548 106.383 24.1715V34.0546C106.383 34.1712 106.475 34.2636 106.592 34.2636H107.707C107.823 34.2636 107.916 34.1712 107.916 34.0546V30.8612C107.916 30.7188 108.091 30.6521 108.184 30.7582L111.227 34.1939C111.266 34.2379 111.323 34.2651 111.382 34.2651H112.785C112.94 34.2651 113.022 34.0803 112.917 33.9637L109.496 30.1522H109.498Z" fill="#4779FF"/>
<path d="M117.063 29.7341C115.472 29.4372 115.105 29.2297 115.105 28.5949C115.105 27.9602 115.766 27.5618 116.594 27.5618C118.044 27.5618 118.308 28.4116 118.354 28.7964C118.366 28.9025 118.458 28.9797 118.562 28.9797H119.628C119.752 28.9797 119.848 28.8737 119.838 28.751C119.72 27.28 118.57 26.412 116.594 26.412C114.825 26.412 113.604 27.2679 113.604 28.6571C113.604 29.8371 114.224 30.6052 116.608 31.0051C118.259 31.2717 118.477 31.5505 118.477 32.2019C118.477 32.926 117.844 33.2941 116.814 33.2941C115.248 33.2956 114.994 32.3579 114.96 31.9398C114.952 31.8292 114.861 31.7444 114.75 31.7444H113.673C113.551 31.7444 113.453 31.8489 113.464 31.9716C113.583 33.7001 114.933 34.4454 116.782 34.4454C118.632 34.4454 120.007 33.6183 120.007 32.114C120.007 30.8158 119.358 30.181 117.062 29.7372L117.063 29.7341Z" fill="#4779FF"/>
<path d="M87.8924 23.9624H86.7802C86.6641 23.9624 86.5701 24.0567 86.5701 24.173V34.0515C86.5701 34.1678 86.6641 34.2621 86.7802 34.2621H87.8924C88.0084 34.2621 88.1025 34.1678 88.1025 34.0515V24.173C88.1025 24.0567 88.0084 23.9624 87.8924 23.9624Z" fill="#4779FF"/>
<path d="M93.1996 26.409C90.8285 26.409 89.4141 28.1359 89.4141 30.4234C89.4141 32.7109 90.8285 34.4378 93.1996 34.4378C95.5707 34.4378 96.985 32.7109 96.985 30.4234C96.985 28.1359 95.5707 26.409 93.1996 26.409ZM93.1996 33.185C91.6824 33.185 90.9751 32.0186 90.9751 30.4234C90.9751 28.8282 91.6809 27.6618 93.1996 27.6618C94.7187 27.6618 95.424 28.8282 95.424 30.4234C95.424 32.0186 94.7187 33.185 93.1996 33.185Z" fill="#4779FF"/>
<path d="M82.1268 26.4226C81.0932 26.4241 80.2605 26.8165 79.7693 27.5012C79.6863 27.6148 79.5064 27.5542 79.5064 27.4148V24.1745C79.5064 24.0579 79.4127 23.964 79.2963 23.964H78.1856C78.0692 23.964 77.9755 24.0579 77.9755 24.1745V34.0515C77.9755 34.1682 78.0692 34.2621 78.1856 34.2621H79.2374C79.3538 34.2621 79.4474 34.1682 79.4474 34.0515V33.2244C79.4474 33.0866 79.6258 33.0396 79.6998 33.1547C80.194 33.9349 81.0433 34.4257 82.0981 34.4257C84.1896 34.4257 85.4696 32.9487 85.4696 30.4249C85.4696 27.9011 84.1745 26.4241 82.1268 26.4241V26.4226ZM81.7007 33.1562C80.33 33.1562 79.52 32.1079 79.52 30.4249C79.52 28.7419 80.33 27.6784 81.7007 27.6784C83.0713 27.6784 83.9116 28.7404 83.9116 30.4249C83.9116 32.1095 83.0864 33.1562 81.7007 33.1562Z" fill="#4779FF"/>
<path d="M43.5522 34.4462H42.5892L40.2188 26.7422H41.5521L43.7004 33.9573L46.0116 26.7422H47.3598L43.8337 37.4093H42.604L43.5522 34.4462Z" fill="black"/>
<path d="M32.4678 23.7812H33.7271V28.1222C33.9444 27.6086 34.2703 27.2234 34.7049 26.9666C35.1395 26.6999 35.7025 26.5665 36.3938 26.5665C37.4507 26.5665 38.2754 26.9221 38.868 27.6332C39.4705 28.3345 39.7718 29.3222 39.7718 30.5963C39.7718 31.8704 39.4705 32.8631 38.868 33.5742C38.2754 34.2755 37.4507 34.6261 36.3938 34.6261C35.663 34.6261 35.0753 34.4878 34.6308 34.2113C34.1962 33.9248 33.8752 33.4952 33.6678 32.9223V34.4483H32.4678V23.7812ZM33.6086 30.5963C33.6086 31.5248 33.816 32.2408 34.2308 32.7446C34.6555 33.2483 35.258 33.5001 36.0383 33.5001C36.8186 33.5001 37.4161 33.2483 37.8309 32.7446C38.2556 32.2408 38.468 31.5248 38.468 30.5963C38.468 29.6679 38.2556 28.9518 37.8309 28.4481C37.4161 27.9444 36.8186 27.6925 36.0383 27.6925C35.258 27.6925 34.6555 27.9444 34.2308 28.4481C33.816 28.9518 33.6086 29.6679 33.6086 30.5963Z" fill="black"/>
</svg>
