<svg preserveAspectRatio="xMidYMid meet" width="97" height="18" overflow="visible" style="display: block;" viewBox="0 0 96.5455 18" fill="none" xmlns="http://www.w3.org/2000/svg">
<g id="New Payment logo">
<g id="Vector">
<path d="M4.53286 5.15903C5.17362 6.07694 5.62325 6.73294 5.88175 7.12702H5.93114C6.28779 6.58179 6.73406 5.92916 7.26996 5.16913L9.05141 2.6403C9.0869 2.59061 9.13374 2.55019 9.18799 2.5224C9.24225 2.49461 9.30235 2.48027 9.36326 2.48058H11.2279C11.2966 2.47901 11.3644 2.49667 11.4237 2.53157C11.483 2.56648 11.5315 2.61726 11.5637 2.67823C11.5958 2.7392 11.6105 2.80796 11.6059 2.8768C11.6014 2.94565 11.5778 3.01186 11.5379 3.06804L7.49584 8.6737C7.45028 8.73649 7.42573 8.81218 7.42573 8.88986C7.42573 8.96755 7.45028 9.04323 7.49584 9.10603L11.73 14.9256C11.77 14.9817 11.7936 15.0479 11.7983 15.1167C11.803 15.1855 11.7886 15.2543 11.7566 15.3154C11.7247 15.3765 11.6765 15.4275 11.6174 15.4627C11.5582 15.4979 11.4905 15.516 11.4218 15.5148H9.59828C9.53754 15.5149 9.47765 15.5005 9.42358 15.4727C9.36951 15.4449 9.32281 15.4046 9.28735 15.3551L7.32758 12.6014C6.8185 11.8873 6.34906 11.212 5.91925 10.5756H5.87992C5.42999 11.2383 4.96054 11.9136 4.47159 12.6014L2.51182 15.3551C2.47636 15.4046 2.42966 15.4449 2.37559 15.4727C2.32152 15.5005 2.26163 15.5149 2.20089 15.5148H0.378286C0.309417 15.5163 0.2415 15.4985 0.182172 15.4634C0.122843 15.4282 0.0744522 15.3772 0.0424358 15.316C0.0104194 15.2547 -0.00395357 15.1858 0.000933298 15.1168C0.00582016 15.0478 0.0297723 14.9816 0.0700986 14.9256L4.30424 9.10603C4.34981 9.04323 4.37436 8.96755 4.37436 8.88986C4.37436 8.81218 4.34981 8.73649 4.30424 8.6737L0.262144 3.06804C0.22224 3.01186 0.1987 2.94565 0.194158 2.8768C0.189617 2.80796 0.204253 2.7392 0.236428 2.67823C0.268604 2.61726 0.317049 2.56648 0.376342 2.53157C0.435636 2.49667 0.503438 2.47901 0.57216 2.48058H2.43683C2.49771 2.48042 2.55775 2.49483 2.61199 2.5226C2.66622 2.55038 2.71307 2.59072 2.74867 2.6403L4.53286 5.15903Z" fill="var(--fill-0, white)"/>
<path d="M27.7963 6.39642C27.7963 7.30576 27.5402 8.07711 27.0281 8.71046C26.516 9.34382 25.7234 9.81287 24.6504 10.1176V10.1562L28.163 14.9238C28.2034 14.9798 28.2275 15.0461 28.2325 15.1152C28.2375 15.1842 28.2233 15.2533 28.1914 15.3147C28.1595 15.376 28.1112 15.4273 28.0519 15.4627C27.9926 15.498 27.9247 15.5161 27.8557 15.5149H25.8804C25.8199 15.5149 25.7602 15.5006 25.7063 15.473C25.6524 15.4454 25.6058 15.4053 25.5704 15.3561L22.1867 10.6271C22.1514 10.5777 22.1048 10.5376 22.0509 10.51C21.997 10.4824 21.9372 10.4681 21.8767 10.4683H20.7866C20.6871 10.4673 20.5912 10.506 20.5201 10.5758C20.449 10.6457 20.4083 10.741 20.4071 10.8409V15.1422C20.4059 15.2421 20.3653 15.3375 20.2941 15.4073C20.223 15.4772 20.1271 15.5159 20.0276 15.5149H18.3577C18.2582 15.5159 18.1623 15.4772 18.0912 15.4073C18.02 15.3375 17.9794 15.2421 17.9782 15.1422V2.85239C17.9788 2.80297 17.9891 2.75415 18.0085 2.70872C18.0279 2.66328 18.056 2.62213 18.0912 2.58761C18.1265 2.55309 18.1682 2.52588 18.2139 2.50752C18.2596 2.48917 18.3085 2.48003 18.3577 2.48064H22.0157C22.639 2.47761 23.2619 2.51502 23.8804 2.59262C24.3837 2.6503 24.8793 2.76295 25.3582 2.92858C26.138 3.22047 26.7397 3.65403 27.1634 4.22925C27.5872 4.80447 27.7981 5.52686 27.7963 6.39642ZM21.6069 8.47181C22.0793 8.47621 22.5514 8.45169 23.0208 8.39838C23.3534 8.36199 23.681 8.28841 23.9974 8.17899C24.4852 7.99541 24.8241 7.74697 25.0144 7.43366C25.2065 7.10478 25.3043 6.72897 25.2969 6.34778C25.3035 6.02343 25.2267 5.70286 25.0738 5.41702C24.9244 5.14777 24.6714 4.93512 24.3148 4.77907C24.0359 4.66261 23.7423 4.58568 23.4423 4.55051C23.0113 4.4969 22.5772 4.47237 22.1428 4.47708H20.7866C20.6871 4.4761 20.5912 4.51479 20.5201 4.58465C20.449 4.65452 20.4083 4.74986 20.4071 4.84975V8.09914C20.4083 8.19903 20.449 8.29437 20.5201 8.36424C20.5912 8.4341 20.6871 8.47279 20.7866 8.47181H21.6069Z" fill="var(--fill-0, white)"/>
<path d="M37.2555 13.5174H43.0233C43.0726 13.5168 43.1215 13.5259 43.1673 13.5444C43.2131 13.5628 43.2548 13.5901 43.2901 13.6247C43.3253 13.6593 43.3534 13.7006 43.3728 13.7461C43.3921 13.7916 43.4023 13.8406 43.4028 13.8901V15.1421C43.4023 15.1916 43.3921 15.2405 43.3728 15.286C43.3534 15.3316 43.3253 15.3728 43.2901 15.4075C43.2548 15.4421 43.2131 15.4694 43.1673 15.4878C43.1215 15.5062 43.0726 15.5154 43.0233 15.5148H34.8257C34.7765 15.5152 34.7276 15.506 34.6819 15.4875C34.6362 15.469 34.5946 15.4417 34.5595 15.4071C34.5243 15.3725 34.4963 15.3313 34.477 15.2858C34.4577 15.2403 34.4476 15.1915 34.4471 15.1421V2.85225C34.4476 2.80287 34.4577 2.75407 34.477 2.70864C34.4963 2.66322 34.5244 2.62206 34.5595 2.58753C34.5947 2.55299 34.6363 2.52576 34.682 2.5074C34.7277 2.48903 34.7765 2.47989 34.8257 2.4805H42.6666C42.7159 2.47989 42.7647 2.48903 42.8105 2.50738C42.8562 2.52574 42.8978 2.55295 42.9331 2.58747C42.9683 2.62199 42.9965 2.66314 43.0159 2.70857C43.0352 2.75401 43.0455 2.80283 43.0461 2.85225V4.10427C43.0457 4.15377 43.0355 4.20269 43.0161 4.24823C42.9968 4.29377 42.9687 4.33502 42.9334 4.36964C42.8982 4.40426 42.8564 4.43156 42.8107 4.44997C42.7649 4.46838 42.7159 4.47755 42.6666 4.47694H37.2555C37.2063 4.47646 37.1574 4.48571 37.1118 4.50418C37.0661 4.52264 37.0245 4.54996 36.9893 4.58457C36.9542 4.61917 36.9261 4.66039 36.9069 4.70587C36.8876 4.75134 36.8774 4.80019 36.8769 4.84961V7.47482C36.8773 7.52428 36.8874 7.57318 36.9066 7.61871C36.9259 7.66424 36.9539 7.70551 36.989 7.74014C37.0242 7.77476 37.0659 7.80208 37.1116 7.8205C37.1573 7.83892 37.2062 7.8481 37.2555 7.84749H41.7942C41.8434 7.847 41.8923 7.85626 41.938 7.87473C41.9836 7.89319 42.0252 7.92051 42.0604 7.95512C42.0955 7.98972 42.1236 8.03094 42.1429 8.07642C42.1621 8.12189 42.1723 8.17074 42.1728 8.22016V9.47218C42.1723 9.5216 42.1621 9.57045 42.1429 9.61592C42.1236 9.6614 42.0955 9.70262 42.0604 9.73722C42.0252 9.77183 41.9836 9.79915 41.938 9.81761C41.8923 9.83608 41.8434 9.84534 41.7942 9.84485H37.2555C37.2063 9.84437 37.1574 9.85362 37.1118 9.87209C37.0661 9.89055 37.0245 9.91787 36.9893 9.95248C36.9542 9.98708 36.9261 10.0283 36.9069 10.0738C36.8876 10.1193 36.8774 10.1681 36.8769 10.2175V13.1447C36.8774 13.1941 36.8876 13.243 36.9069 13.2885C36.9261 13.3339 36.9542 13.3752 36.9893 13.4098C37.0245 13.4444 37.0661 13.4717 37.1118 13.4902C37.1574 13.5086 37.2063 13.5179 37.2555 13.5174Z" fill="var(--fill-0, white)"/>
<path d="M53.2782 5.15901C53.919 6.07692 54.3686 6.73292 54.6271 7.127H54.6765C55.0332 6.58177 55.4794 5.92914 56.0153 5.16911L57.7968 2.64028C57.8324 2.59071 57.8792 2.55036 57.9335 2.52259C57.9877 2.49481 58.0477 2.48041 58.1086 2.48057H59.9733C60.042 2.47899 60.1098 2.49665 60.1691 2.53155C60.2284 2.56646 60.2768 2.61724 60.309 2.67821C60.3412 2.73918 60.3558 2.80794 60.3513 2.87678C60.3468 2.94563 60.3232 3.01184 60.2833 3.06802L56.2412 8.67368C56.1956 8.73647 56.1711 8.81216 56.1711 8.88984C56.1711 8.96753 56.1956 9.04321 56.2412 9.10601L60.4754 14.9255C60.5157 14.9816 60.5396 15.0478 60.5445 15.1168C60.5494 15.1858 60.535 15.2547 60.503 15.3159C60.471 15.3772 60.4226 15.4282 60.3633 15.4633C60.304 15.4985 60.236 15.5163 60.1672 15.5148H58.3455C58.2847 15.5149 58.2249 15.5005 58.1708 15.4727C58.1167 15.4449 58.07 15.4046 58.0345 15.3551L56.0748 12.6014C55.5657 11.8873 55.0963 11.212 54.6664 10.5756H54.6271C54.1772 11.2383 53.7077 11.9136 53.2188 12.6014L51.259 15.3551C51.2236 15.4046 51.1768 15.4449 51.1228 15.4727C51.0687 15.5005 51.0088 15.5149 50.9481 15.5148H49.1255C49.0567 15.516 48.989 15.4979 48.9299 15.4627C48.8708 15.4275 48.8226 15.3765 48.7906 15.3154C48.7587 15.2543 48.7442 15.1855 48.749 15.1167C48.7537 15.0478 48.7773 14.9817 48.8173 14.9255L53.0514 9.10601C53.097 9.04321 53.1215 8.96753 53.1215 8.88984C53.1215 8.81216 53.097 8.73647 53.0514 8.67368L49.0093 3.06802C48.9694 3.01184 48.9459 2.94563 48.9413 2.87678C48.9368 2.80794 48.9514 2.73918 48.9836 2.67821C49.0158 2.61724 49.0642 2.56646 49.1235 2.53155C49.1828 2.49665 49.2506 2.47899 49.3193 2.48057H51.184C51.2449 2.48041 51.3049 2.49481 51.3592 2.52259C51.4134 2.55036 51.4603 2.59071 51.4959 2.64028L53.2782 5.15901Z" fill="var(--fill-0, white)"/>
</g>
<path id="Subtract" d="M94.0908 0.818359C94.9944 0.818359 95.7273 1.55057 95.7275 2.4541V15.5459C95.7273 16.4494 94.9944 17.1816 94.0908 17.1816H68.7275C67.8239 17.1816 67.0911 16.4494 67.0908 15.5459V2.4541C67.0911 1.55057 67.8239 0.818359 68.7275 0.818359H94.0908ZM85.0811 6.47266L86.1426 12.4785L86.0371 12.6562C85.9515 12.7998 85.8502 12.8987 85.7344 12.9541C85.6211 13.012 85.493 13.0364 85.3496 13.0264C85.2086 13.0188 85.0535 12.9843 84.8848 12.9238L84.25 14.2656C84.3834 14.321 84.5447 14.3647 84.7334 14.3975C84.9248 14.4327 85.1319 14.4502 85.3535 14.4502C85.7965 14.4502 86.1802 14.3806 86.5049 14.2422C86.8322 14.1062 87.1121 13.9161 87.3438 13.6719C87.5753 13.4277 87.7729 13.1472 87.9365 12.8301L91.1738 6.47266H89.1602L87.3857 10.6162H87.3252L86.9473 6.47266H85.0811ZM82.0713 6.39746C81.5502 6.39746 81.0902 6.47758 80.6924 6.63867C80.2971 6.79728 79.9707 7.01648 79.7139 7.2959C79.4571 7.5728 79.2757 7.88783 79.1699 8.24023L80.8623 8.30078C80.9303 8.11473 81.0498 7.96897 81.2207 7.86328C81.3919 7.75752 81.5991 7.7041 81.8408 7.7041C82.0673 7.70415 82.2373 7.75757 82.3506 7.86328C82.4637 7.96903 82.5048 8.11876 82.4746 8.3125V8.33105C82.4519 8.44689 82.3894 8.53805 82.2861 8.60352C82.1829 8.66641 82.0263 8.71574 81.8174 8.75098C81.611 8.78619 81.3418 8.81845 81.0098 8.84863C80.7127 8.8738 80.4281 8.92311 80.1562 8.99609C79.8844 9.06909 79.6375 9.17505 79.416 9.31348C79.1969 9.45197 79.0114 9.63192 78.8604 9.85352C78.7118 10.0726 78.6101 10.3437 78.5547 10.666C78.4918 11.046 78.5208 11.363 78.6416 11.6172C78.7649 11.8714 78.9584 12.0616 79.2227 12.1875C79.4896 12.3109 79.8072 12.373 80.1748 12.373C80.4442 12.373 80.6923 12.3385 80.9189 12.2705C81.1455 12.2025 81.35 12.1008 81.5312 11.9648C81.7149 11.8289 81.8748 11.6621 82.0107 11.4658H82.0557L81.9199 12.2744H83.6572L84.3184 8.33105C84.3687 8.02398 84.3498 7.75086 84.2617 7.51172C84.1736 7.2725 84.0258 7.0709 83.8193 6.90723C83.6155 6.74118 83.3653 6.61487 83.0684 6.5293C82.7713 6.44119 82.4388 6.39749 82.0713 6.39746ZM73.1182 4.53906L71.834 12.2744H73.7041L74.1045 9.87207H75.3652C75.9618 9.87207 76.4946 9.76289 76.9629 9.54395C77.4313 9.32487 77.8142 9.01602 78.1113 8.61816C78.411 8.22031 78.6038 7.75314 78.6895 7.2168C78.7775 6.68558 78.7412 6.21826 78.5801 5.81543C78.4189 5.41272 78.1458 5.09906 77.7607 4.875C77.3755 4.65089 76.8926 4.53906 76.3135 4.53906H73.1182ZM82.1729 10.2119C82.1401 10.4008 82.0633 10.5674 81.9424 10.7109C81.824 10.8519 81.6776 10.9624 81.5039 11.043C81.3303 11.1234 81.1468 11.164 80.9531 11.1641C80.7366 11.1641 80.5685 11.1134 80.4502 11.0127C80.3322 10.9095 80.2883 10.7637 80.3184 10.5752C80.336 10.4493 80.3839 10.3407 80.4619 10.25C80.5425 10.1569 80.6498 10.0813 80.7832 10.0234C80.9166 9.96558 81.0737 9.92221 81.2549 9.89453C81.3405 9.88194 81.4303 9.86862 81.5234 9.85352C81.619 9.8359 81.7122 9.81839 81.8027 9.80078C81.8934 9.78064 81.979 9.75899 82.0596 9.73633C82.1401 9.71368 82.2069 9.6888 82.2598 9.66113L82.1729 10.2119ZM75.6641 6.0459C75.9434 6.04591 76.17 6.09384 76.3438 6.18945C76.52 6.28513 76.642 6.42141 76.71 6.59766C76.7779 6.77134 76.7936 6.9777 76.7559 7.2168C76.7156 7.45598 76.6317 7.6636 76.5059 7.83984C76.38 8.01611 76.2129 8.15375 76.0039 8.25195C75.7975 8.35013 75.552 8.39939 75.2676 8.39941H74.3496L74.7422 6.0459H75.6641Z" fill="var(--fill-0, white)"/>
</g>
</svg>
