<svg width="24" height="24" viewBox="0 0 24 24" fill="none" xmlns="http://www.w3.org/2000/svg">
<path fill-rule="evenodd" clip-rule="evenodd" d="M12 4.5C7.85786 4.5 4.5 7.85786 4.5 12C4.5 16.1421 7.85786 19.5 12 19.5C16.1421 19.5 19.5 16.1421 19.5 12C19.5 7.85786 16.1421 4.5 12 4.5ZM2 12C2 6.47715 6.47715 2 12 2C17.5228 2 22 6.47715 22 12C22 17.5228 17.5228 22 12 22C6.47715 22 2 17.5228 2 12Z" fill="#3F78FF"/>
<circle cx="12" cy="12" r="10" fill="#3F78FF"/>
<path fill-rule="evenodd" clip-rule="evenodd" d="M16.8296 8.28284C17.314 8.68687 17.3498 9.37469 16.9093 9.81912L10.6402 16.1453C10.3987 16.389 10.0138 16.4154 9.74128 16.207L6.76167 13.9292C6.23837 13.5292 6.16934 12.7671 6.61224 12.2795C7.00508 11.847 7.66363 11.7874 8.12778 12.1422L9.65555 13.3102C9.84747 13.4569 10.1185 13.4383 10.2885 13.2667L15.1549 8.35599C15.5953 7.91156 16.3451 7.8788 16.8296 8.28284Z" fill="white"/>
</svg>
